<?xml version="1.0" encoding="utf-8" standalone="no"?>
<!DOCTYPE svg PUBLIC "-//W3C//DTD SVG 1.1//EN"
  "http://www.w3.org/Graphics/SVG/1.1/DTD/svg11.dtd">
<svg xmlns:xlink="http://www.w3.org/1999/xlink" width="432pt" height="288pt" viewBox="0 0 432 288" xmlns="http://www.w3.org/2000/svg" version="1.1">
 <metadata>
  <rdf:RDF xmlns:dc="http://purl.org/dc/elements/1.1/" xmlns:cc="http://creativecommons.org/ns#" xmlns:rdf="http://www.w3.org/1999/02/22-rdf-syntax-ns#">
   <cc:Work>
    <dc:type rdf:resource="http://purl.org/dc/dcmitype/StillImage"/>
    <dc:date>2022-12-09T15:30:53.656813</dc:date>
    <dc:format>image/svg+xml</dc:format>
    <dc:creator>
     <cc:Agent>
      <dc:title>Matplotlib v3.6.1, https://matplotlib.org/</dc:title>
     </cc:Agent>
    </dc:creator>
   </cc:Work>
  </rdf:RDF>
 </metadata>
 <defs>
  <style type="text/css">*{stroke-linejoin: round; stroke-linecap: butt}</style>
 </defs>
 <g id="figure_1">
  <g id="axes_1">
   <g id="patch_1">
    <path d="M 41.057685 255.12 
L 421.2 255.12 
L 421.2 26.88 
L 41.057685 26.88 
z
" style="fill: #ffffff"/>
   </g>
   <g id="matplotlib.axis_1">
    <g id="xtick_1">
     <g id="line2d_1">
      <defs>
       <path id="mbabf0bb950" d="M 0 0 
L 0 3.5 
" style="stroke: #000000; stroke-width: 0.8"/>
      </defs>
      <g>
       <use xlink:href="#mbabf0bb950" x="92.891736" y="260.12" style="stroke: #000000; stroke-width: 0.8"/>
      </g>
     </g>
     <g id="text_1">
      <!-- −1.0 -->
      <g transform="translate(80.750329 274.718437) scale(0.1 -0.1)">
       <defs>
        <path id="DejaVuSans-2212" d="M 678 2272 
L 4684 2272 
L 4684 1741 
L 678 1741 
L 678 2272 
z
" transform="scale(0.015625)"/>
        <path id="DejaVuSans-31" d="M 794 531 
L 1825 531 
L 1825 4091 
L 703 3866 
L 703 4441 
L 1819 4666 
L 2450 4666 
L 2450 531 
L 3481 531 
L 3481 0 
L 794 0 
L 794 531 
z
" transform="scale(0.015625)"/>
        <path id="DejaVuSans-2e" d="M 684 794 
L 1344 794 
L 1344 0 
L 684 0 
L 684 794 
z
" transform="scale(0.015625)"/>
        <path id="DejaVuSans-30" d="M 2034 4250 
Q 1547 4250 1301 3770 
Q 1056 3291 1056 2328 
Q 1056 1369 1301 889 
Q 1547 409 2034 409 
Q 2525 409 2770 889 
Q 3016 1369 3016 2328 
Q 3016 3291 2770 3770 
Q 2525 4250 2034 4250 
z
M 2034 4750 
Q 2819 4750 3233 4129 
Q 3647 3509 3647 2328 
Q 3647 1150 3233 529 
Q 2819 -91 2034 -91 
Q 1250 -91 836 529 
Q 422 1150 422 2328 
Q 422 3509 836 4129 
Q 1250 4750 2034 4750 
z
" transform="scale(0.015625)"/>
       </defs>
       <use xlink:href="#DejaVuSans-2212"/>
       <use xlink:href="#DejaVuSans-31" x="83.789062"/>
       <use xlink:href="#DejaVuSans-2e" x="147.412109"/>
       <use xlink:href="#DejaVuSans-30" x="179.199219"/>
      </g>
     </g>
    </g>
    <g id="xtick_2">
     <g id="line2d_2">
      <g>
       <use xlink:href="#mbabf0bb950" x="170.658841" y="260.12" style="stroke: #000000; stroke-width: 0.8"/>
      </g>
     </g>
     <g id="text_2">
      <!-- −0.5 -->
      <g transform="translate(158.517434 274.718437) scale(0.1 -0.1)">
       <defs>
        <path id="DejaVuSans-35" d="M 691 4666 
L 3169 4666 
L 3169 4134 
L 1269 4134 
L 1269 2991 
Q 1406 3038 1543 3061 
Q 1681 3084 1819 3084 
Q 2600 3084 3056 2656 
Q 3513 2228 3513 1497 
Q 3513 744 3044 326 
Q 2575 -91 1722 -91 
Q 1428 -91 1123 -41 
Q 819 9 494 109 
L 494 744 
Q 775 591 1075 516 
Q 1375 441 1709 441 
Q 2250 441 2565 725 
Q 2881 1009 2881 1497 
Q 2881 1984 2565 2268 
Q 2250 2553 1709 2553 
Q 1456 2553 1204 2497 
Q 953 2441 691 2322 
L 691 4666 
z
" transform="scale(0.015625)"/>
       </defs>
       <use xlink:href="#DejaVuSans-2212"/>
       <use xlink:href="#DejaVuSans-30" x="83.789062"/>
       <use xlink:href="#DejaVuSans-2e" x="147.412109"/>
       <use xlink:href="#DejaVuSans-35" x="179.199219"/>
      </g>
     </g>
    </g>
    <g id="xtick_3">
     <g id="line2d_3">
      <g>
       <use xlink:href="#mbabf0bb950" x="248.425945" y="260.12" style="stroke: #000000; stroke-width: 0.8"/>
      </g>
     </g>
     <g id="text_3">
      <!-- 0.0 -->
      <g transform="translate(240.474383 274.718437) scale(0.1 -0.1)">
       <use xlink:href="#DejaVuSans-30"/>
       <use xlink:href="#DejaVuSans-2e" x="63.623047"/>
       <use xlink:href="#DejaVuSans-30" x="95.410156"/>
      </g>
     </g>
    </g>
    <g id="xtick_4">
     <g id="line2d_4">
      <g>
       <use xlink:href="#mbabf0bb950" x="326.19305" y="260.12" style="stroke: #000000; stroke-width: 0.8"/>
      </g>
     </g>
     <g id="text_4">
      <!-- 0.5 -->
      <g transform="translate(318.241488 274.718437) scale(0.1 -0.1)">
       <use xlink:href="#DejaVuSans-30"/>
       <use xlink:href="#DejaVuSans-2e" x="63.623047"/>
       <use xlink:href="#DejaVuSans-35" x="95.410156"/>
      </g>
     </g>
    </g>
    <g id="xtick_5">
     <g id="line2d_5">
      <g>
       <use xlink:href="#mbabf0bb950" x="403.960155" y="260.12" style="stroke: #000000; stroke-width: 0.8"/>
      </g>
     </g>
     <g id="text_5">
      <!-- 1.0 -->
      <g transform="translate(396.008593 274.718437) scale(0.1 -0.1)">
       <use xlink:href="#DejaVuSans-31"/>
       <use xlink:href="#DejaVuSans-2e" x="63.623047"/>
       <use xlink:href="#DejaVuSans-30" x="95.410156"/>
      </g>
     </g>
    </g>
    <g id="xtick_6">
     <g id="line2d_6">
      <path d="M 54.008183 255.12 
L 54.008183 26.88 
" clip-path="url(#p63c4fc030e)" style="fill: none; stroke: #b0b0b0; stroke-opacity: 0.5; stroke-width: 0.5; stroke-linecap: square"/>
     </g>
     <g id="line2d_7">
      <defs>
       <path id="madcad02a4e" d="M 0 0 
L 0 2 
" style="stroke: #000000; stroke-width: 0.6"/>
      </defs>
      <g>
       <use xlink:href="#madcad02a4e" x="54.008183" y="260.12" style="stroke: #000000; stroke-width: 0.6"/>
      </g>
     </g>
    </g>
    <g id="xtick_7">
     <g id="line2d_8">
      <path d="M 131.775288 255.12 
L 131.775288 26.88 
" clip-path="url(#p63c4fc030e)" style="fill: none; stroke: #b0b0b0; stroke-opacity: 0.5; stroke-width: 0.5; stroke-linecap: square"/>
     </g>
     <g id="line2d_9">
      <g>
       <use xlink:href="#madcad02a4e" x="131.775288" y="260.12" style="stroke: #000000; stroke-width: 0.6"/>
      </g>
     </g>
    </g>
    <g id="xtick_8">
     <g id="line2d_10">
      <path d="M 209.542393 255.12 
L 209.542393 26.88 
" clip-path="url(#p63c4fc030e)" style="fill: none; stroke: #b0b0b0; stroke-opacity: 0.5; stroke-width: 0.5; stroke-linecap: square"/>
     </g>
     <g id="line2d_11">
      <g>
       <use xlink:href="#madcad02a4e" x="209.542393" y="260.12" style="stroke: #000000; stroke-width: 0.6"/>
      </g>
     </g>
    </g>
    <g id="xtick_9">
     <g id="line2d_12">
      <path d="M 287.309498 255.12 
L 287.309498 26.88 
" clip-path="url(#p63c4fc030e)" style="fill: none; stroke: #b0b0b0; stroke-opacity: 0.5; stroke-width: 0.5; stroke-linecap: square"/>
     </g>
     <g id="line2d_13">
      <g>
       <use xlink:href="#madcad02a4e" x="287.309498" y="260.12" style="stroke: #000000; stroke-width: 0.6"/>
      </g>
     </g>
    </g>
    <g id="xtick_10">
     <g id="line2d_14">
      <path d="M 365.076603 255.12 
L 365.076603 26.88 
" clip-path="url(#p63c4fc030e)" style="fill: none; stroke: #b0b0b0; stroke-opacity: 0.5; stroke-width: 0.5; stroke-linecap: square"/>
     </g>
     <g id="line2d_15">
      <g>
       <use xlink:href="#madcad02a4e" x="365.076603" y="260.12" style="stroke: #000000; stroke-width: 0.6"/>
      </g>
     </g>
    </g>
   </g>
   <g id="matplotlib.axis_2">
    <g id="ytick_1">
     <g id="line2d_16">
      <path d="M 41.057685 244.745455 
L 421.2 244.745455 
" clip-path="url(#p63c4fc030e)" style="fill: none; stroke: #e6e6e6; stroke-linecap: square"/>
     </g>
     <g id="line2d_17">
      <defs>
       <path id="m24005b7c27" d="M 0 0 
L -3.5 0 
" style="stroke: #000000; stroke-width: 0.8"/>
      </defs>
      <g>
       <use xlink:href="#m24005b7c27" x="36.057685" y="244.745455" style="stroke: #000000; stroke-width: 0.8"/>
      </g>
     </g>
     <g id="text_6">
      <!-- $\mathdefault{10^{0}}$ -->
      <g transform="translate(11.457685 248.544673) scale(0.1 -0.1)">
       <use xlink:href="#DejaVuSans-31" transform="translate(0 0.765625)"/>
       <use xlink:href="#DejaVuSans-30" transform="translate(63.623047 0.765625)"/>
       <use xlink:href="#DejaVuSans-30" transform="translate(128.203125 39.046875) scale(0.7)"/>
      </g>
     </g>
    </g>
    <g id="ytick_2">
     <g id="line2d_18">
      <path d="M 41.057685 192.872164 
L 421.2 192.872164 
" clip-path="url(#p63c4fc030e)" style="fill: none; stroke: #e6e6e6; stroke-linecap: square"/>
     </g>
     <g id="line2d_19">
      <g>
       <use xlink:href="#m24005b7c27" x="36.057685" y="192.872164" style="stroke: #000000; stroke-width: 0.8"/>
      </g>
     </g>
     <g id="text_7">
      <!-- $\mathdefault{10^{1}}$ -->
      <g transform="translate(11.457685 196.671383) scale(0.1 -0.1)">
       <use xlink:href="#DejaVuSans-31" transform="translate(0 0.684375)"/>
       <use xlink:href="#DejaVuSans-30" transform="translate(63.623047 0.684375)"/>
       <use xlink:href="#DejaVuSans-31" transform="translate(128.203125 38.965625) scale(0.7)"/>
      </g>
     </g>
    </g>
    <g id="ytick_3">
     <g id="line2d_20">
      <path d="M 41.057685 140.998874 
L 421.2 140.998874 
" clip-path="url(#p63c4fc030e)" style="fill: none; stroke: #e6e6e6; stroke-linecap: square"/>
     </g>
     <g id="line2d_21">
      <g>
       <use xlink:href="#m24005b7c27" x="36.057685" y="140.998874" style="stroke: #000000; stroke-width: 0.8"/>
      </g>
     </g>
     <g id="text_8">
      <!-- $\mathdefault{10^{2}}$ -->
      <g transform="translate(11.457685 144.798092) scale(0.1 -0.1)">
       <defs>
        <path id="DejaVuSans-32" d="M 1228 531 
L 3431 531 
L 3431 0 
L 469 0 
L 469 531 
Q 828 903 1448 1529 
Q 2069 2156 2228 2338 
Q 2531 2678 2651 2914 
Q 2772 3150 2772 3378 
Q 2772 3750 2511 3984 
Q 2250 4219 1831 4219 
Q 1534 4219 1204 4116 
Q 875 4013 500 3803 
L 500 4441 
Q 881 4594 1212 4672 
Q 1544 4750 1819 4750 
Q 2544 4750 2975 4387 
Q 3406 4025 3406 3419 
Q 3406 3131 3298 2873 
Q 3191 2616 2906 2266 
Q 2828 2175 2409 1742 
Q 1991 1309 1228 531 
z
" transform="scale(0.015625)"/>
       </defs>
       <use xlink:href="#DejaVuSans-31" transform="translate(0 0.765625)"/>
       <use xlink:href="#DejaVuSans-30" transform="translate(63.623047 0.765625)"/>
       <use xlink:href="#DejaVuSans-32" transform="translate(128.203125 39.046875) scale(0.7)"/>
      </g>
     </g>
    </g>
    <g id="ytick_4">
     <g id="line2d_22">
      <path d="M 41.057685 89.125583 
L 421.2 89.125583 
" clip-path="url(#p63c4fc030e)" style="fill: none; stroke: #e6e6e6; stroke-linecap: square"/>
     </g>
     <g id="line2d_23">
      <g>
       <use xlink:href="#m24005b7c27" x="36.057685" y="89.125583" style="stroke: #000000; stroke-width: 0.8"/>
      </g>
     </g>
     <g id="text_9">
      <!-- $\mathdefault{10^{3}}$ -->
      <g transform="translate(11.457685 92.924802) scale(0.1 -0.1)">
       <defs>
        <path id="DejaVuSans-33" d="M 2597 2516 
Q 3050 2419 3304 2112 
Q 3559 1806 3559 1356 
Q 3559 666 3084 287 
Q 2609 -91 1734 -91 
Q 1441 -91 1130 -33 
Q 819 25 488 141 
L 488 750 
Q 750 597 1062 519 
Q 1375 441 1716 441 
Q 2309 441 2620 675 
Q 2931 909 2931 1356 
Q 2931 1769 2642 2001 
Q 2353 2234 1838 2234 
L 1294 2234 
L 1294 2753 
L 1863 2753 
Q 2328 2753 2575 2939 
Q 2822 3125 2822 3475 
Q 2822 3834 2567 4026 
Q 2313 4219 1838 4219 
Q 1578 4219 1281 4162 
Q 984 4106 628 3988 
L 628 4550 
Q 988 4650 1302 4700 
Q 1616 4750 1894 4750 
Q 2613 4750 3031 4423 
Q 3450 4097 3450 3541 
Q 3450 3153 3228 2886 
Q 3006 2619 2597 2516 
z
" transform="scale(0.015625)"/>
       </defs>
       <use xlink:href="#DejaVuSans-31" transform="translate(0 0.765625)"/>
       <use xlink:href="#DejaVuSans-30" transform="translate(63.623047 0.765625)"/>
       <use xlink:href="#DejaVuSans-33" transform="translate(128.203125 39.046875) scale(0.7)"/>
      </g>
     </g>
    </g>
    <g id="ytick_5">
     <g id="line2d_24">
      <path d="M 41.057685 37.252293 
L 421.2 37.252293 
" clip-path="url(#p63c4fc030e)" style="fill: none; stroke: #e6e6e6; stroke-linecap: square"/>
     </g>
     <g id="line2d_25">
      <g>
       <use xlink:href="#m24005b7c27" x="36.057685" y="37.252293" style="stroke: #000000; stroke-width: 0.8"/>
      </g>
     </g>
     <g id="text_10">
      <!-- $\mathdefault{10^{4}}$ -->
      <g transform="translate(11.457685 41.051511) scale(0.1 -0.1)">
       <defs>
        <path id="DejaVuSans-34" d="M 2419 4116 
L 825 1625 
L 2419 1625 
L 2419 4116 
z
M 2253 4666 
L 3047 4666 
L 3047 1625 
L 3713 1625 
L 3713 1100 
L 3047 1100 
L 3047 0 
L 2419 0 
L 2419 1100 
L 313 1100 
L 313 1709 
L 2253 4666 
z
" transform="scale(0.015625)"/>
       </defs>
       <use xlink:href="#DejaVuSans-31" transform="translate(0 0.684375)"/>
       <use xlink:href="#DejaVuSans-30" transform="translate(63.623047 0.684375)"/>
       <use xlink:href="#DejaVuSans-34" transform="translate(128.203125 38.965625) scale(0.7)"/>
      </g>
     </g>
    </g>
    <g id="ytick_6">
     <g id="line2d_26">
      <path d="M 41.057685 252.780729 
L 421.2 252.780729 
" clip-path="url(#p63c4fc030e)" style="fill: none; stroke: #b0b0b0; stroke-opacity: 0.5; stroke-width: 0.5; stroke-linecap: square"/>
     </g>
     <g id="line2d_27">
      <defs>
       <path id="m20076c27d4" d="M 0 0 
L -2 0 
" style="stroke: #000000; stroke-width: 0.6"/>
      </defs>
      <g>
       <use xlink:href="#m20076c27d4" x="36.057685" y="252.780729" style="stroke: #000000; stroke-width: 0.6"/>
      </g>
     </g>
    </g>
    <g id="ytick_7">
     <g id="line2d_28">
      <path d="M 41.057685 249.772496 
L 421.2 249.772496 
" clip-path="url(#p63c4fc030e)" style="fill: none; stroke: #b0b0b0; stroke-opacity: 0.5; stroke-width: 0.5; stroke-linecap: square"/>
     </g>
     <g id="line2d_29">
      <g>
       <use xlink:href="#m20076c27d4" x="36.057685" y="249.772496" style="stroke: #000000; stroke-width: 0.6"/>
      </g>
     </g>
    </g>
    <g id="ytick_8">
     <g id="line2d_30">
      <path d="M 41.057685 247.119046 
L 421.2 247.119046 
" clip-path="url(#p63c4fc030e)" style="fill: none; stroke: #b0b0b0; stroke-opacity: 0.5; stroke-width: 0.5; stroke-linecap: square"/>
     </g>
     <g id="line2d_31">
      <g>
       <use xlink:href="#m20076c27d4" x="36.057685" y="247.119046" style="stroke: #000000; stroke-width: 0.6"/>
      </g>
     </g>
    </g>
    <g id="ytick_9">
     <g id="line2d_32">
      <path d="M 41.057685 229.130038 
L 421.2 229.130038 
" clip-path="url(#p63c4fc030e)" style="fill: none; stroke: #b0b0b0; stroke-opacity: 0.5; stroke-width: 0.5; stroke-linecap: square"/>
     </g>
     <g id="line2d_33">
      <g>
       <use xlink:href="#m20076c27d4" x="36.057685" y="229.130038" style="stroke: #000000; stroke-width: 0.6"/>
      </g>
     </g>
    </g>
    <g id="ytick_10">
     <g id="line2d_34">
      <path d="M 41.057685 219.995605 
L 421.2 219.995605 
" clip-path="url(#p63c4fc030e)" style="fill: none; stroke: #b0b0b0; stroke-opacity: 0.5; stroke-width: 0.5; stroke-linecap: square"/>
     </g>
     <g id="line2d_35">
      <g>
       <use xlink:href="#m20076c27d4" x="36.057685" y="219.995605" style="stroke: #000000; stroke-width: 0.6"/>
      </g>
     </g>
    </g>
    <g id="ytick_11">
     <g id="line2d_36">
      <path d="M 41.057685 213.514622 
L 421.2 213.514622 
" clip-path="url(#p63c4fc030e)" style="fill: none; stroke: #b0b0b0; stroke-opacity: 0.5; stroke-width: 0.5; stroke-linecap: square"/>
     </g>
     <g id="line2d_37">
      <g>
       <use xlink:href="#m20076c27d4" x="36.057685" y="213.514622" style="stroke: #000000; stroke-width: 0.6"/>
      </g>
     </g>
    </g>
    <g id="ytick_12">
     <g id="line2d_38">
      <path d="M 41.057685 208.48758 
L 421.2 208.48758 
" clip-path="url(#p63c4fc030e)" style="fill: none; stroke: #b0b0b0; stroke-opacity: 0.5; stroke-width: 0.5; stroke-linecap: square"/>
     </g>
     <g id="line2d_39">
      <g>
       <use xlink:href="#m20076c27d4" x="36.057685" y="208.48758" style="stroke: #000000; stroke-width: 0.6"/>
      </g>
     </g>
    </g>
    <g id="ytick_13">
     <g id="line2d_40">
      <path d="M 41.057685 204.380189 
L 421.2 204.380189 
" clip-path="url(#p63c4fc030e)" style="fill: none; stroke: #b0b0b0; stroke-opacity: 0.5; stroke-width: 0.5; stroke-linecap: square"/>
     </g>
     <g id="line2d_41">
      <g>
       <use xlink:href="#m20076c27d4" x="36.057685" y="204.380189" style="stroke: #000000; stroke-width: 0.6"/>
      </g>
     </g>
    </g>
    <g id="ytick_14">
     <g id="line2d_42">
      <path d="M 41.057685 200.907438 
L 421.2 200.907438 
" clip-path="url(#p63c4fc030e)" style="fill: none; stroke: #b0b0b0; stroke-opacity: 0.5; stroke-width: 0.5; stroke-linecap: square"/>
     </g>
     <g id="line2d_43">
      <g>
       <use xlink:href="#m20076c27d4" x="36.057685" y="200.907438" style="stroke: #000000; stroke-width: 0.6"/>
      </g>
     </g>
    </g>
    <g id="ytick_15">
     <g id="line2d_44">
      <path d="M 41.057685 197.899205 
L 421.2 197.899205 
" clip-path="url(#p63c4fc030e)" style="fill: none; stroke: #b0b0b0; stroke-opacity: 0.5; stroke-width: 0.5; stroke-linecap: square"/>
     </g>
     <g id="line2d_45">
      <g>
       <use xlink:href="#m20076c27d4" x="36.057685" y="197.899205" style="stroke: #000000; stroke-width: 0.6"/>
      </g>
     </g>
    </g>
    <g id="ytick_16">
     <g id="line2d_46">
      <path d="M 41.057685 195.245756 
L 421.2 195.245756 
" clip-path="url(#p63c4fc030e)" style="fill: none; stroke: #b0b0b0; stroke-opacity: 0.5; stroke-width: 0.5; stroke-linecap: square"/>
     </g>
     <g id="line2d_47">
      <g>
       <use xlink:href="#m20076c27d4" x="36.057685" y="195.245756" style="stroke: #000000; stroke-width: 0.6"/>
      </g>
     </g>
    </g>
    <g id="ytick_17">
     <g id="line2d_48">
      <path d="M 41.057685 177.256748 
L 421.2 177.256748 
" clip-path="url(#p63c4fc030e)" style="fill: none; stroke: #b0b0b0; stroke-opacity: 0.5; stroke-width: 0.5; stroke-linecap: square"/>
     </g>
     <g id="line2d_49">
      <g>
       <use xlink:href="#m20076c27d4" x="36.057685" y="177.256748" style="stroke: #000000; stroke-width: 0.6"/>
      </g>
     </g>
    </g>
    <g id="ytick_18">
     <g id="line2d_50">
      <path d="M 41.057685 168.122315 
L 421.2 168.122315 
" clip-path="url(#p63c4fc030e)" style="fill: none; stroke: #b0b0b0; stroke-opacity: 0.5; stroke-width: 0.5; stroke-linecap: square"/>
     </g>
     <g id="line2d_51">
      <g>
       <use xlink:href="#m20076c27d4" x="36.057685" y="168.122315" style="stroke: #000000; stroke-width: 0.6"/>
      </g>
     </g>
    </g>
    <g id="ytick_19">
     <g id="line2d_52">
      <path d="M 41.057685 161.641331 
L 421.2 161.641331 
" clip-path="url(#p63c4fc030e)" style="fill: none; stroke: #b0b0b0; stroke-opacity: 0.5; stroke-width: 0.5; stroke-linecap: square"/>
     </g>
     <g id="line2d_53">
      <g>
       <use xlink:href="#m20076c27d4" x="36.057685" y="161.641331" style="stroke: #000000; stroke-width: 0.6"/>
      </g>
     </g>
    </g>
    <g id="ytick_20">
     <g id="line2d_54">
      <path d="M 41.057685 156.61429 
L 421.2 156.61429 
" clip-path="url(#p63c4fc030e)" style="fill: none; stroke: #b0b0b0; stroke-opacity: 0.5; stroke-width: 0.5; stroke-linecap: square"/>
     </g>
     <g id="line2d_55">
      <g>
       <use xlink:href="#m20076c27d4" x="36.057685" y="156.61429" style="stroke: #000000; stroke-width: 0.6"/>
      </g>
     </g>
    </g>
    <g id="ytick_21">
     <g id="line2d_56">
      <path d="M 41.057685 152.506898 
L 421.2 152.506898 
" clip-path="url(#p63c4fc030e)" style="fill: none; stroke: #b0b0b0; stroke-opacity: 0.5; stroke-width: 0.5; stroke-linecap: square"/>
     </g>
     <g id="line2d_57">
      <g>
       <use xlink:href="#m20076c27d4" x="36.057685" y="152.506898" style="stroke: #000000; stroke-width: 0.6"/>
      </g>
     </g>
    </g>
    <g id="ytick_22">
     <g id="line2d_58">
      <path d="M 41.057685 149.034148 
L 421.2 149.034148 
" clip-path="url(#p63c4fc030e)" style="fill: none; stroke: #b0b0b0; stroke-opacity: 0.5; stroke-width: 0.5; stroke-linecap: square"/>
     </g>
     <g id="line2d_59">
      <g>
       <use xlink:href="#m20076c27d4" x="36.057685" y="149.034148" style="stroke: #000000; stroke-width: 0.6"/>
      </g>
     </g>
    </g>
    <g id="ytick_23">
     <g id="line2d_60">
      <path d="M 41.057685 146.025915 
L 421.2 146.025915 
" clip-path="url(#p63c4fc030e)" style="fill: none; stroke: #b0b0b0; stroke-opacity: 0.5; stroke-width: 0.5; stroke-linecap: square"/>
     </g>
     <g id="line2d_61">
      <g>
       <use xlink:href="#m20076c27d4" x="36.057685" y="146.025915" style="stroke: #000000; stroke-width: 0.6"/>
      </g>
     </g>
    </g>
    <g id="ytick_24">
     <g id="line2d_62">
      <path d="M 41.057685 143.372465 
L 421.2 143.372465 
" clip-path="url(#p63c4fc030e)" style="fill: none; stroke: #b0b0b0; stroke-opacity: 0.5; stroke-width: 0.5; stroke-linecap: square"/>
     </g>
     <g id="line2d_63">
      <g>
       <use xlink:href="#m20076c27d4" x="36.057685" y="143.372465" style="stroke: #000000; stroke-width: 0.6"/>
      </g>
     </g>
    </g>
    <g id="ytick_25">
     <g id="line2d_64">
      <path d="M 41.057685 125.383457 
L 421.2 125.383457 
" clip-path="url(#p63c4fc030e)" style="fill: none; stroke: #b0b0b0; stroke-opacity: 0.5; stroke-width: 0.5; stroke-linecap: square"/>
     </g>
     <g id="line2d_65">
      <g>
       <use xlink:href="#m20076c27d4" x="36.057685" y="125.383457" style="stroke: #000000; stroke-width: 0.6"/>
      </g>
     </g>
    </g>
    <g id="ytick_26">
     <g id="line2d_66">
      <path d="M 41.057685 116.249024 
L 421.2 116.249024 
" clip-path="url(#p63c4fc030e)" style="fill: none; stroke: #b0b0b0; stroke-opacity: 0.5; stroke-width: 0.5; stroke-linecap: square"/>
     </g>
     <g id="line2d_67">
      <g>
       <use xlink:href="#m20076c27d4" x="36.057685" y="116.249024" style="stroke: #000000; stroke-width: 0.6"/>
      </g>
     </g>
    </g>
    <g id="ytick_27">
     <g id="line2d_68">
      <path d="M 41.057685 109.768041 
L 421.2 109.768041 
" clip-path="url(#p63c4fc030e)" style="fill: none; stroke: #b0b0b0; stroke-opacity: 0.5; stroke-width: 0.5; stroke-linecap: square"/>
     </g>
     <g id="line2d_69">
      <g>
       <use xlink:href="#m20076c27d4" x="36.057685" y="109.768041" style="stroke: #000000; stroke-width: 0.6"/>
      </g>
     </g>
    </g>
    <g id="ytick_28">
     <g id="line2d_70">
      <path d="M 41.057685 104.740999 
L 421.2 104.740999 
" clip-path="url(#p63c4fc030e)" style="fill: none; stroke: #b0b0b0; stroke-opacity: 0.5; stroke-width: 0.5; stroke-linecap: square"/>
     </g>
     <g id="line2d_71">
      <g>
       <use xlink:href="#m20076c27d4" x="36.057685" y="104.740999" style="stroke: #000000; stroke-width: 0.6"/>
      </g>
     </g>
    </g>
    <g id="ytick_29">
     <g id="line2d_72">
      <path d="M 41.057685 100.633608 
L 421.2 100.633608 
" clip-path="url(#p63c4fc030e)" style="fill: none; stroke: #b0b0b0; stroke-opacity: 0.5; stroke-width: 0.5; stroke-linecap: square"/>
     </g>
     <g id="line2d_73">
      <g>
       <use xlink:href="#m20076c27d4" x="36.057685" y="100.633608" style="stroke: #000000; stroke-width: 0.6"/>
      </g>
     </g>
    </g>
    <g id="ytick_30">
     <g id="line2d_74">
      <path d="M 41.057685 97.160857 
L 421.2 97.160857 
" clip-path="url(#p63c4fc030e)" style="fill: none; stroke: #b0b0b0; stroke-opacity: 0.5; stroke-width: 0.5; stroke-linecap: square"/>
     </g>
     <g id="line2d_75">
      <g>
       <use xlink:href="#m20076c27d4" x="36.057685" y="97.160857" style="stroke: #000000; stroke-width: 0.6"/>
      </g>
     </g>
    </g>
    <g id="ytick_31">
     <g id="line2d_76">
      <path d="M 41.057685 94.152624 
L 421.2 94.152624 
" clip-path="url(#p63c4fc030e)" style="fill: none; stroke: #b0b0b0; stroke-opacity: 0.5; stroke-width: 0.5; stroke-linecap: square"/>
     </g>
     <g id="line2d_77">
      <g>
       <use xlink:href="#m20076c27d4" x="36.057685" y="94.152624" style="stroke: #000000; stroke-width: 0.6"/>
      </g>
     </g>
    </g>
    <g id="ytick_32">
     <g id="line2d_78">
      <path d="M 41.057685 91.499175 
L 421.2 91.499175 
" clip-path="url(#p63c4fc030e)" style="fill: none; stroke: #b0b0b0; stroke-opacity: 0.5; stroke-width: 0.5; stroke-linecap: square"/>
     </g>
     <g id="line2d_79">
      <g>
       <use xlink:href="#m20076c27d4" x="36.057685" y="91.499175" style="stroke: #000000; stroke-width: 0.6"/>
      </g>
     </g>
    </g>
    <g id="ytick_33">
     <g id="line2d_80">
      <path d="M 41.057685 73.510167 
L 421.2 73.510167 
" clip-path="url(#p63c4fc030e)" style="fill: none; stroke: #b0b0b0; stroke-opacity: 0.5; stroke-width: 0.5; stroke-linecap: square"/>
     </g>
     <g id="line2d_81">
      <g>
       <use xlink:href="#m20076c27d4" x="36.057685" y="73.510167" style="stroke: #000000; stroke-width: 0.6"/>
      </g>
     </g>
    </g>
    <g id="ytick_34">
     <g id="line2d_82">
      <path d="M 41.057685 64.375734 
L 421.2 64.375734 
" clip-path="url(#p63c4fc030e)" style="fill: none; stroke: #b0b0b0; stroke-opacity: 0.5; stroke-width: 0.5; stroke-linecap: square"/>
     </g>
     <g id="line2d_83">
      <g>
       <use xlink:href="#m20076c27d4" x="36.057685" y="64.375734" style="stroke: #000000; stroke-width: 0.6"/>
      </g>
     </g>
    </g>
    <g id="ytick_35">
     <g id="line2d_84">
      <path d="M 41.057685 57.89475 
L 421.2 57.89475 
" clip-path="url(#p63c4fc030e)" style="fill: none; stroke: #b0b0b0; stroke-opacity: 0.5; stroke-width: 0.5; stroke-linecap: square"/>
     </g>
     <g id="line2d_85">
      <g>
       <use xlink:href="#m20076c27d4" x="36.057685" y="57.89475" style="stroke: #000000; stroke-width: 0.6"/>
      </g>
     </g>
    </g>
    <g id="ytick_36">
     <g id="line2d_86">
      <path d="M 41.057685 52.867709 
L 421.2 52.867709 
" clip-path="url(#p63c4fc030e)" style="fill: none; stroke: #b0b0b0; stroke-opacity: 0.5; stroke-width: 0.5; stroke-linecap: square"/>
     </g>
     <g id="line2d_87">
      <g>
       <use xlink:href="#m20076c27d4" x="36.057685" y="52.867709" style="stroke: #000000; stroke-width: 0.6"/>
      </g>
     </g>
    </g>
    <g id="ytick_37">
     <g id="line2d_88">
      <path d="M 41.057685 48.760317 
L 421.2 48.760317 
" clip-path="url(#p63c4fc030e)" style="fill: none; stroke: #b0b0b0; stroke-opacity: 0.5; stroke-width: 0.5; stroke-linecap: square"/>
     </g>
     <g id="line2d_89">
      <g>
       <use xlink:href="#m20076c27d4" x="36.057685" y="48.760317" style="stroke: #000000; stroke-width: 0.6"/>
      </g>
     </g>
    </g>
    <g id="ytick_38">
     <g id="line2d_90">
      <path d="M 41.057685 45.287567 
L 421.2 45.287567 
" clip-path="url(#p63c4fc030e)" style="fill: none; stroke: #b0b0b0; stroke-opacity: 0.5; stroke-width: 0.5; stroke-linecap: square"/>
     </g>
     <g id="line2d_91">
      <g>
       <use xlink:href="#m20076c27d4" x="36.057685" y="45.287567" style="stroke: #000000; stroke-width: 0.6"/>
      </g>
     </g>
    </g>
    <g id="ytick_39">
     <g id="line2d_92">
      <path d="M 41.057685 42.279334 
L 421.2 42.279334 
" clip-path="url(#p63c4fc030e)" style="fill: none; stroke: #b0b0b0; stroke-opacity: 0.5; stroke-width: 0.5; stroke-linecap: square"/>
     </g>
     <g id="line2d_93">
      <g>
       <use xlink:href="#m20076c27d4" x="36.057685" y="42.279334" style="stroke: #000000; stroke-width: 0.6"/>
      </g>
     </g>
    </g>
    <g id="ytick_40">
     <g id="line2d_94">
      <path d="M 41.057685 39.625884 
L 421.2 39.625884 
" clip-path="url(#p63c4fc030e)" style="fill: none; stroke: #b0b0b0; stroke-opacity: 0.5; stroke-width: 0.5; stroke-linecap: square"/>
     </g>
     <g id="line2d_95">
      <g>
       <use xlink:href="#m20076c27d4" x="36.057685" y="39.625884" style="stroke: #000000; stroke-width: 0.6"/>
      </g>
     </g>
    </g>
   </g>
   <g id="line2d_96">
    <path d="M 403.917869 289 
L 403.80695 197.899205 
L 403.709617 186.961547 
L 403.535755 169.676606 
L 403.412027 163.397671 
L 403.247244 155.730715 
L 403.041266 151.7682 
L 402.965551 150.703673 
L 402.821166 147.782255 
L 401.983444 134.744307 
L 401.928057 134.071771 
L 401.683246 130.693877 
L 401.581967 130.270135 
L 401.408486 127.757049 
L 401.048992 124.937338 
L 400.951147 124.499882 
L 400.868035 124.284298 
L 400.765171 123.649657 
L 400.614865 122.730007 
L 400.51487 122.137124 
L 400.460942 121.750363 
L 400.332867 120.537367 
L 400.202554 119.47284 
L 400.090266 119.214387 
L 400.013916 118.790113 
L 399.863684 117.642971 
L 399.715143 117.012768 
L 399.517506 116.02486 
L 399.424261 115.65614 
L 399.286252 114.865593 
L 398.758193 112.393348 
L 398.553759 111.830892 
L 398.447769 111.58535 
L 398.363619 111.402934 
L 398.245725 110.746434 
L 398.121615 110.454234 
L 397.982588 109.824432 
L 397.911291 109.65568 
L 397.797589 109.211759 
L 397.727663 108.884465 
L 397.610133 108.455342 
L 397.445787 108.191233 
L 397.200187 107.416989 
L 396.455467 104.876576 
L 396.377033 104.695988 
L 396.252293 104.25075 
L 396.077544 104.031389 
L 395.589735 102.430576 
L 395.483019 102.147705 
L 395.177882 101.631616 
L 393.860392 98.554804 
L 393.742124 98.35031 
L 393.637371 98.147655 
L 393.523476 97.946807 
L 393.337416 97.485011 
L 393.246358 97.257615 
L 393.008478 96.809594 
L 392.569111 96.09237 
L 391.928451 94.809805 
L 391.812681 94.57904 
L 391.678456 94.265548 
L 391.576912 94.124482 
L 391.479365 93.956359 
L 390.792518 92.813375 
L 390.676976 92.654725 
L 390.525333 92.523364 
L 389.220396 90.092215 
L 389.084773 89.858275 
L 387.904454 88.242008 
L 387.836657 88.155527 
L 387.700181 87.983554 
L 387.111373 87.142849 
L 386.791729 86.794836 
L 386.686522 86.67328 
L 386.290097 86.173741 
L 386.148363 86.0162 
L 385.92936 85.859753 
L 385.641588 85.454175 
L 385.554851 85.30157 
L 383.592722 83.042335 
L 383.410004 82.853956 
L 383.266037 82.734893 
L 383.120697 82.565888 
L 382.855072 82.24823 
L 382.733464 82.082823 
L 381.730966 81.083551 
L 381.399973 80.879532 
L 380.761801 80.096528 
L 380.516571 79.901217 
L 380.378737 79.72242 
L 380.225144 79.545031 
L 380.120421 79.442195 
L 379.13876 78.650132 
L 378.957702 78.509065 
L 378.777038 78.340943 
L 378.695575 78.229554 
L 378.459659 78.091089 
L 377.676293 77.344376 
L 377.474137 77.158191 
L 377.260915 76.9604 
L 376.772402 76.686377 
L 376.652684 76.50553 
L 376.054337 76.03445 
L 375.902022 75.908804 
L 373.385112 73.976796 
L 373.104339 73.804955 
L 372.763284 73.555268 
L 372.525472 73.330657 
L 372.383425 73.174752 
L 372.090522 72.997885 
L 371.929597 72.888044 
L 371.547372 72.659107 
L 370.982355 72.240014 
L 370.75782 72.102032 
L 369.065501 70.967125 
L 368.974919 70.896803 
L 368.622618 70.726928 
L 368.466082 70.627597 
L 368.224473 70.459733 
L 366.843355 69.553466 
L 366.575623 69.421556 
L 366.224551 69.187907 
L 364.908412 68.429122 
L 364.582876 68.250041 
L 362.633828 67.136448 
L 362.147049 66.933641 
L 361.55374 66.599635 
L 361.133211 66.385157 
L 360.868502 66.237859 
L 360.570222 66.06722 
L 360.474981 66.018703 
L 359.953705 65.761693 
L 359.719615 65.642221 
L 359.077003 65.365894 
L 358.790237 65.178353 
L 358.386944 64.984643 
L 358.297998 64.923006 
L 357.944856 64.746734 
L 357.533606 64.556685 
L 357.121938 64.413312 
L 356.607751 64.129275 
L 356.047409 63.936978 
L 355.762846 63.760917 
L 354.656603 63.262276 
L 354.598942 63.233705 
L 354.057516 63.070121 
L 352.567411 62.393 
L 351.960045 62.167202 
L 351.719224 62.038216 
L 351.318792 61.856182 
L 350.971518 61.722284 
L 350.88702 61.648978 
L 350.454499 61.496468 
L 350.295699 61.43048 
L 349.820403 61.220608 
L 349.679192 61.135903 
L 344.848179 59.181106 
L 343.571451 58.656552 
L 341.522855 57.883489 
L 340.992954 57.732009 
L 339.936734 57.365958 
L 339.315063 57.108864 
L 339.180011 57.05454 
L 338.437943 56.827798 
L 338.279617 56.742017 
L 337.952594 56.629922 
L 337.439592 56.481325 
L 337.151009 56.338957 
L 336.558331 56.1766 
L 325.216888 52.68373 
L 324.595553 52.536734 
L 324.015519 52.34662 
L 323.392826 52.179938 
L 322.969659 52.070948 
L 318.959253 50.967648 
L 318.831987 50.92214 
L 317.456563 50.622443 
L 317.322724 50.569488 
L 316.720635 50.411365 
L 310.454851 48.88079 
L 310.257696 48.816708 
L 308.133154 48.317879 
L 306.894023 47.999828 
L 305.7958 47.768692 
L 305.34789 47.636141 
L 304.582648 47.465337 
L 304.498016 47.451161 
L 303.640794 47.264174 
L 303.326993 47.166011 
L 302.502047 46.984837 
L 302.119671 46.919 
L 298.223651 46.060191 
L 298.087376 46.003641 
L 295.951867 45.559541 
L 295.454403 45.481499 
L 294.829428 45.342345 
L 294.416291 45.24898 
L 291.709281 44.70618 
L 291.574505 44.668575 
L 285.81948 43.521011 
L 285.1061 43.393422 
L 283.812383 43.125768 
L 282.485302 42.893066 
L 259.11396 38.862975 
L 257.714818 38.643843 
L 257.483086 38.612711 
L 254.403765 38.136769 
L 254.246291 38.127399 
L 252.135564 37.834215 
L 251.404989 37.732726 
L 248.444768 37.254545 
L 248.444768 37.254545 
" clip-path="url(#p63c4fc030e)" style="fill: none; stroke: #31688e; stroke-width: 2; stroke-linecap: square"/>
   </g>
   <g id="line2d_97">
    <path d="M 325.843618 52.869962 
L 325.843618 289 
" clip-path="url(#p63c4fc030e)" style="fill: none; stroke-dasharray: 2.775,1.2; stroke-dashoffset: 0; stroke: #31688e; stroke-width: 0.75"/>
   </g>
   <g id="line2d_98">
    <defs>
     <path id="m021a29328f" d="M 0 4 
C 1.060812 4 2.078319 3.578535 2.828427 2.828427 
C 3.578535 2.078319 4 1.060812 4 0 
C 4 -1.060812 3.578535 -2.078319 2.828427 -2.828427 
C 2.078319 -3.578535 1.060812 -4 0 -4 
C -1.060812 -4 -2.078319 -3.578535 -2.828427 -2.828427 
C -3.578535 -2.078319 -4 -1.060812 -4 0 
C -4 1.060812 -3.578535 2.078319 -2.828427 2.828427 
C -2.078319 3.578535 -1.060812 4 0 4 
z
" style="stroke: #31688e"/>
    </defs>
    <g clip-path="url(#p63c4fc030e)">
     <use xlink:href="#m021a29328f" x="325.843618" y="52.869962" style="fill: #ffffff; stroke: #31688e"/>
     <use xlink:href="#m021a29328f" x="325.843618" y="20737" style="fill: #ffffff; stroke: #31688e"/>
    </g>
   </g>
   <g id="line2d_99">
    <path d="M 247.80021 289 
L 247.800099 244.745455 
L 247.618155 208.48758 
L 247.265763 200.907438 
L 247.158651 179.630339 
L 247.027234 173.149356 
L 246.91052 164.014923 
L 246.748437 154.467115 
L 246.582998 151.052956 
L 245.40179 124.717548 
L 245.165815 121.654701 
L 245.024776 119.559655 
L 244.866637 117.48376 
L 243.915302 108.776416 
L 243.839505 108.243807 
L 243.693849 107.064584 
L 243.489679 105.058624 
L 242.672918 100.784299 
L 242.585817 100.44665 
L 242.138095 98.384264 
L 242.027211 98.013558 
L 241.862157 97.096583 
L 241.745702 96.746313 
L 240.72979 93.596342 
L 240.626551 93.296142 
L 240.509935 92.707484 
L 240.371888 92.288828 
L 240.273127 91.852369 
L 240.086247 91.349484 
L 239.921319 90.615599 
L 239.780972 90.092215 
L 239.505598 89.48895 
L 239.334888 88.968434 
L 239.254644 88.745821 
L 236.252662 82.19848 
L 236.185035 82.049887 
L 236.035436 81.820673 
L 235.942275 81.658365 
L 235.657684 81.273531 
L 235.386213 80.770436 
L 235.270334 80.538423 
L 234.978603 80.036252 
L 234.584105 79.456857 
L 234.482449 79.252452 
L 234.341795 79.093138 
L 233.988242 78.452885 
L 233.751269 78.008416 
L 233.464859 77.748603 
L 233.14672 77.237796 
L 233.019672 77.026138 
L 232.88927 76.829497 
L 232.665286 76.5184 
L 232.514077 76.275125 
L 232.394509 76.110175 
L 232.194373 75.796318 
L 232.074234 75.634824 
L 231.805874 75.120849 
L 230.986744 74.103651 
L 230.870527 74.022842 
L 230.039522 72.789643 
L 229.816144 72.529323 
L 229.659968 72.346733 
L 229.176368 71.859959 
L 228.844882 71.506812 
L 228.738707 71.40399 
L 228.451091 71.138828 
L 228.350449 71.01749 
L 228.196238 70.846707 
L 226.525903 69.281076 
L 226.335524 69.150747 
L 226.139986 68.892328 
L 225.910212 68.664076 
L 225.77551 68.555331 
L 225.560619 68.294678 
L 225.424933 68.161032 
L 225.085718 67.940034 
L 224.845653 67.721184 
L 224.709237 67.556268 
L 224.415254 67.23854 
L 224.195424 67.094045 
L 223.850559 66.799444 
L 223.559054 66.591348 
L 223.293761 66.352341 
L 223.02214 66.197114 
L 218.953786 63.11268 
L 218.732091 62.964072 
L 218.335253 62.718548 
L 218.083395 62.572509 
L 217.803356 62.372379 
L 215.806435 61.181474 
L 215.580843 61.083934 
L 215.176454 60.93519 
L 214.521132 60.55172 
L 214.149984 60.393848 
L 213.768603 60.218334 
L 213.393686 60.044178 
L 213.25485 59.932927 
L 212.986683 59.779317 
L 212.592163 59.578143 
L 210.561346 58.586751 
L 210.424156 58.534542 
L 209.916098 58.315427 
L 209.73265 58.218088 
L 209.018578 57.922928 
L 208.280944 57.614892 
L 207.998514 57.481785 
L 207.568674 57.261673 
L 207.060161 57.114304 
L 204.739476 56.103659 
L 204.31007 55.932656 
L 202.225142 55.041934 
L 201.989643 54.987416 
L 201.408218 54.775557 
L 201.089026 54.633793 
L 200.603391 54.473552 
L 200.476218 54.420391 
L 199.853736 54.237702 
L 192.221924 51.67007 
L 191.643774 51.512544 
L 189.57532 50.901485 
L 188.570773 50.704156 
L 175.189807 47.682624 
L 173.677232 47.419299 
L 173.050289 47.278232 
L 171.414304 47.01609 
L 167.639385 46.402501 
L 167.45655 46.372087 
L 165.515134 46.140267 
L 164.946894 46.046872 
L 163.367131 45.795305 
L 162.602452 45.680389 
L 160.528187 45.432859 
L 160.282125 45.381092 
L 156.320879 44.904641 
L 153.945267 44.677971 
L 153.689163 44.646668 
L 152.283971 44.500127 
L 151.552343 44.472175 
L 149.607885 44.280549 
L 148.549948 44.194539 
L 145.975777 43.990054 
L 139.091246 43.562708 
L 135.758343 43.399341 
L 130.213657 43.166739 
L 124.991687 43.017844 
L 124.920502 43.012025 
L 110.310524 42.722975 
L 97.37454 42.582683 
L 58.336881 42.426246 
L 58.336881 42.426246 
" clip-path="url(#p63c4fc030e)" style="fill: none; stroke: #35b779; stroke-width: 2; stroke-linecap: square"/>
   </g>
   <g id="line2d_100">
    <path d="M 209.305117 58.041662 
L 209.305117 289 
" clip-path="url(#p63c4fc030e)" style="fill: none; stroke-dasharray: 2.775,1.2; stroke-dashoffset: 0; stroke: #35b779; stroke-width: 0.75"/>
   </g>
   <g id="line2d_101">
    <defs>
     <path id="m2459063fd3" d="M 0 4 
C 1.060812 4 2.078319 3.578535 2.828427 2.828427 
C 3.578535 2.078319 4 1.060812 4 0 
C 4 -1.060812 3.578535 -2.078319 2.828427 -2.828427 
C 2.078319 -3.578535 1.060812 -4 0 -4 
C -1.060812 -4 -2.078319 -3.578535 -2.828427 -2.828427 
C -3.578535 -2.078319 -4 -1.060812 -4 0 
C -4 1.060812 -3.578535 2.078319 -2.828427 2.828427 
C -2.078319 3.578535 -1.060812 4 0 4 
z
" style="stroke: #35b779"/>
    </defs>
    <g clip-path="url(#p63c4fc030e)">
     <use xlink:href="#m2459063fd3" x="209.305117" y="58.041662" style="fill: #ffffff; stroke: #35b779"/>
     <use xlink:href="#m2459063fd3" x="209.305117" y="20737" style="fill: #ffffff; stroke: #35b779"/>
    </g>
   </g>
   <g id="patch_2">
    <path d="M 41.057685 260.12 
L 421.2 260.12 
" style="fill: none; stroke: #000000; stroke-width: 0.8; stroke-linejoin: miter; stroke-linecap: square"/>
   </g>
   <g id="text_11">
    <!-- Cumulative density (unnormalized) -->
    <g transform="translate(125.44353 20.88) scale(0.12 -0.12)">
     <defs>
      <path id="DejaVuSans-43" d="M 4122 4306 
L 4122 3641 
Q 3803 3938 3442 4084 
Q 3081 4231 2675 4231 
Q 1875 4231 1450 3742 
Q 1025 3253 1025 2328 
Q 1025 1406 1450 917 
Q 1875 428 2675 428 
Q 3081 428 3442 575 
Q 3803 722 4122 1019 
L 4122 359 
Q 3791 134 3420 21 
Q 3050 -91 2638 -91 
Q 1578 -91 968 557 
Q 359 1206 359 2328 
Q 359 3453 968 4101 
Q 1578 4750 2638 4750 
Q 3056 4750 3426 4639 
Q 3797 4528 4122 4306 
z
" transform="scale(0.015625)"/>
      <path id="DejaVuSans-75" d="M 544 1381 
L 544 3500 
L 1119 3500 
L 1119 1403 
Q 1119 906 1312 657 
Q 1506 409 1894 409 
Q 2359 409 2629 706 
Q 2900 1003 2900 1516 
L 2900 3500 
L 3475 3500 
L 3475 0 
L 2900 0 
L 2900 538 
Q 2691 219 2414 64 
Q 2138 -91 1772 -91 
Q 1169 -91 856 284 
Q 544 659 544 1381 
z
M 1991 3584 
L 1991 3584 
z
" transform="scale(0.015625)"/>
      <path id="DejaVuSans-6d" d="M 3328 2828 
Q 3544 3216 3844 3400 
Q 4144 3584 4550 3584 
Q 5097 3584 5394 3201 
Q 5691 2819 5691 2113 
L 5691 0 
L 5113 0 
L 5113 2094 
Q 5113 2597 4934 2840 
Q 4756 3084 4391 3084 
Q 3944 3084 3684 2787 
Q 3425 2491 3425 1978 
L 3425 0 
L 2847 0 
L 2847 2094 
Q 2847 2600 2669 2842 
Q 2491 3084 2119 3084 
Q 1678 3084 1418 2786 
Q 1159 2488 1159 1978 
L 1159 0 
L 581 0 
L 581 3500 
L 1159 3500 
L 1159 2956 
Q 1356 3278 1631 3431 
Q 1906 3584 2284 3584 
Q 2666 3584 2933 3390 
Q 3200 3197 3328 2828 
z
" transform="scale(0.015625)"/>
      <path id="DejaVuSans-6c" d="M 603 4863 
L 1178 4863 
L 1178 0 
L 603 0 
L 603 4863 
z
" transform="scale(0.015625)"/>
      <path id="DejaVuSans-61" d="M 2194 1759 
Q 1497 1759 1228 1600 
Q 959 1441 959 1056 
Q 959 750 1161 570 
Q 1363 391 1709 391 
Q 2188 391 2477 730 
Q 2766 1069 2766 1631 
L 2766 1759 
L 2194 1759 
z
M 3341 1997 
L 3341 0 
L 2766 0 
L 2766 531 
Q 2569 213 2275 61 
Q 1981 -91 1556 -91 
Q 1019 -91 701 211 
Q 384 513 384 1019 
Q 384 1609 779 1909 
Q 1175 2209 1959 2209 
L 2766 2209 
L 2766 2266 
Q 2766 2663 2505 2880 
Q 2244 3097 1772 3097 
Q 1472 3097 1187 3025 
Q 903 2953 641 2809 
L 641 3341 
Q 956 3463 1253 3523 
Q 1550 3584 1831 3584 
Q 2591 3584 2966 3190 
Q 3341 2797 3341 1997 
z
" transform="scale(0.015625)"/>
      <path id="DejaVuSans-74" d="M 1172 4494 
L 1172 3500 
L 2356 3500 
L 2356 3053 
L 1172 3053 
L 1172 1153 
Q 1172 725 1289 603 
Q 1406 481 1766 481 
L 2356 481 
L 2356 0 
L 1766 0 
Q 1100 0 847 248 
Q 594 497 594 1153 
L 594 3053 
L 172 3053 
L 172 3500 
L 594 3500 
L 594 4494 
L 1172 4494 
z
" transform="scale(0.015625)"/>
      <path id="DejaVuSans-69" d="M 603 3500 
L 1178 3500 
L 1178 0 
L 603 0 
L 603 3500 
z
M 603 4863 
L 1178 4863 
L 1178 4134 
L 603 4134 
L 603 4863 
z
" transform="scale(0.015625)"/>
      <path id="DejaVuSans-76" d="M 191 3500 
L 800 3500 
L 1894 563 
L 2988 3500 
L 3597 3500 
L 2284 0 
L 1503 0 
L 191 3500 
z
" transform="scale(0.015625)"/>
      <path id="DejaVuSans-65" d="M 3597 1894 
L 3597 1613 
L 953 1613 
Q 991 1019 1311 708 
Q 1631 397 2203 397 
Q 2534 397 2845 478 
Q 3156 559 3463 722 
L 3463 178 
Q 3153 47 2828 -22 
Q 2503 -91 2169 -91 
Q 1331 -91 842 396 
Q 353 884 353 1716 
Q 353 2575 817 3079 
Q 1281 3584 2069 3584 
Q 2775 3584 3186 3129 
Q 3597 2675 3597 1894 
z
M 3022 2063 
Q 3016 2534 2758 2815 
Q 2500 3097 2075 3097 
Q 1594 3097 1305 2825 
Q 1016 2553 972 2059 
L 3022 2063 
z
" transform="scale(0.015625)"/>
      <path id="DejaVuSans-20" transform="scale(0.015625)"/>
      <path id="DejaVuSans-64" d="M 2906 2969 
L 2906 4863 
L 3481 4863 
L 3481 0 
L 2906 0 
L 2906 525 
Q 2725 213 2448 61 
Q 2172 -91 1784 -91 
Q 1150 -91 751 415 
Q 353 922 353 1747 
Q 353 2572 751 3078 
Q 1150 3584 1784 3584 
Q 2172 3584 2448 3432 
Q 2725 3281 2906 2969 
z
M 947 1747 
Q 947 1113 1208 752 
Q 1469 391 1925 391 
Q 2381 391 2643 752 
Q 2906 1113 2906 1747 
Q 2906 2381 2643 2742 
Q 2381 3103 1925 3103 
Q 1469 3103 1208 2742 
Q 947 2381 947 1747 
z
" transform="scale(0.015625)"/>
      <path id="DejaVuSans-6e" d="M 3513 2113 
L 3513 0 
L 2938 0 
L 2938 2094 
Q 2938 2591 2744 2837 
Q 2550 3084 2163 3084 
Q 1697 3084 1428 2787 
Q 1159 2491 1159 1978 
L 1159 0 
L 581 0 
L 581 3500 
L 1159 3500 
L 1159 2956 
Q 1366 3272 1645 3428 
Q 1925 3584 2291 3584 
Q 2894 3584 3203 3211 
Q 3513 2838 3513 2113 
z
" transform="scale(0.015625)"/>
      <path id="DejaVuSans-73" d="M 2834 3397 
L 2834 2853 
Q 2591 2978 2328 3040 
Q 2066 3103 1784 3103 
Q 1356 3103 1142 2972 
Q 928 2841 928 2578 
Q 928 2378 1081 2264 
Q 1234 2150 1697 2047 
L 1894 2003 
Q 2506 1872 2764 1633 
Q 3022 1394 3022 966 
Q 3022 478 2636 193 
Q 2250 -91 1575 -91 
Q 1294 -91 989 -36 
Q 684 19 347 128 
L 347 722 
Q 666 556 975 473 
Q 1284 391 1588 391 
Q 1994 391 2212 530 
Q 2431 669 2431 922 
Q 2431 1156 2273 1281 
Q 2116 1406 1581 1522 
L 1381 1569 
Q 847 1681 609 1914 
Q 372 2147 372 2553 
Q 372 3047 722 3315 
Q 1072 3584 1716 3584 
Q 2034 3584 2315 3537 
Q 2597 3491 2834 3397 
z
" transform="scale(0.015625)"/>
      <path id="DejaVuSans-79" d="M 2059 -325 
Q 1816 -950 1584 -1140 
Q 1353 -1331 966 -1331 
L 506 -1331 
L 506 -850 
L 844 -850 
Q 1081 -850 1212 -737 
Q 1344 -625 1503 -206 
L 1606 56 
L 191 3500 
L 800 3500 
L 1894 763 
L 2988 3500 
L 3597 3500 
L 2059 -325 
z
" transform="scale(0.015625)"/>
      <path id="DejaVuSans-28" d="M 1984 4856 
Q 1566 4138 1362 3434 
Q 1159 2731 1159 2009 
Q 1159 1288 1364 580 
Q 1569 -128 1984 -844 
L 1484 -844 
Q 1016 -109 783 600 
Q 550 1309 550 2009 
Q 550 2706 781 3412 
Q 1013 4119 1484 4856 
L 1984 4856 
z
" transform="scale(0.015625)"/>
      <path id="DejaVuSans-6f" d="M 1959 3097 
Q 1497 3097 1228 2736 
Q 959 2375 959 1747 
Q 959 1119 1226 758 
Q 1494 397 1959 397 
Q 2419 397 2687 759 
Q 2956 1122 2956 1747 
Q 2956 2369 2687 2733 
Q 2419 3097 1959 3097 
z
M 1959 3584 
Q 2709 3584 3137 3096 
Q 3566 2609 3566 1747 
Q 3566 888 3137 398 
Q 2709 -91 1959 -91 
Q 1206 -91 779 398 
Q 353 888 353 1747 
Q 353 2609 779 3096 
Q 1206 3584 1959 3584 
z
" transform="scale(0.015625)"/>
      <path id="DejaVuSans-72" d="M 2631 2963 
Q 2534 3019 2420 3045 
Q 2306 3072 2169 3072 
Q 1681 3072 1420 2755 
Q 1159 2438 1159 1844 
L 1159 0 
L 581 0 
L 581 3500 
L 1159 3500 
L 1159 2956 
Q 1341 3275 1631 3429 
Q 1922 3584 2338 3584 
Q 2397 3584 2469 3576 
Q 2541 3569 2628 3553 
L 2631 2963 
z
" transform="scale(0.015625)"/>
      <path id="DejaVuSans-7a" d="M 353 3500 
L 3084 3500 
L 3084 2975 
L 922 459 
L 3084 459 
L 3084 0 
L 275 0 
L 275 525 
L 2438 3041 
L 353 3041 
L 353 3500 
z
" transform="scale(0.015625)"/>
      <path id="DejaVuSans-29" d="M 513 4856 
L 1013 4856 
Q 1481 4119 1714 3412 
Q 1947 2706 1947 2009 
Q 1947 1309 1714 600 
Q 1481 -109 1013 -844 
L 513 -844 
Q 928 -128 1133 580 
Q 1338 1288 1338 2009 
Q 1338 2731 1133 3434 
Q 928 4138 513 4856 
z
" transform="scale(0.015625)"/>
     </defs>
     <use xlink:href="#DejaVuSans-43"/>
     <use xlink:href="#DejaVuSans-75" x="69.824219"/>
     <use xlink:href="#DejaVuSans-6d" x="133.203125"/>
     <use xlink:href="#DejaVuSans-75" x="230.615234"/>
     <use xlink:href="#DejaVuSans-6c" x="293.994141"/>
     <use xlink:href="#DejaVuSans-61" x="321.777344"/>
     <use xlink:href="#DejaVuSans-74" x="383.056641"/>
     <use xlink:href="#DejaVuSans-69" x="422.265625"/>
     <use xlink:href="#DejaVuSans-76" x="450.048828"/>
     <use xlink:href="#DejaVuSans-65" x="509.228516"/>
     <use xlink:href="#DejaVuSans-20" x="570.751953"/>
     <use xlink:href="#DejaVuSans-64" x="602.539062"/>
     <use xlink:href="#DejaVuSans-65" x="666.015625"/>
     <use xlink:href="#DejaVuSans-6e" x="727.539062"/>
     <use xlink:href="#DejaVuSans-73" x="790.917969"/>
     <use xlink:href="#DejaVuSans-69" x="843.017578"/>
     <use xlink:href="#DejaVuSans-74" x="870.800781"/>
     <use xlink:href="#DejaVuSans-79" x="910.009766"/>
     <use xlink:href="#DejaVuSans-20" x="969.189453"/>
     <use xlink:href="#DejaVuSans-28" x="1000.976562"/>
     <use xlink:href="#DejaVuSans-75" x="1039.990234"/>
     <use xlink:href="#DejaVuSans-6e" x="1103.369141"/>
     <use xlink:href="#DejaVuSans-6e" x="1166.748047"/>
     <use xlink:href="#DejaVuSans-6f" x="1230.126953"/>
     <use xlink:href="#DejaVuSans-72" x="1291.308594"/>
     <use xlink:href="#DejaVuSans-6d" x="1330.671875"/>
     <use xlink:href="#DejaVuSans-61" x="1428.083984"/>
     <use xlink:href="#DejaVuSans-6c" x="1489.363281"/>
     <use xlink:href="#DejaVuSans-69" x="1517.146484"/>
     <use xlink:href="#DejaVuSans-7a" x="1544.929688"/>
     <use xlink:href="#DejaVuSans-65" x="1597.419922"/>
     <use xlink:href="#DejaVuSans-64" x="1658.943359"/>
     <use xlink:href="#DejaVuSans-29" x="1722.419922"/>
    </g>
   </g>
   <g id="legend_1">
    <g id="patch_3">
     <path d="M 48.057685 250.12 
L 194.057685 250.12 
Q 196.057685 250.12 196.057685 248.12 
L 196.057685 219.2075 
Q 196.057685 217.2075 194.057685 217.2075 
L 48.057685 217.2075 
Q 46.057685 217.2075 46.057685 219.2075 
L 46.057685 248.12 
Q 46.057685 250.12 48.057685 250.12 
z
" style="fill: #e6e6e6; opacity: 0.8; stroke: #ffffff; stroke-linejoin: miter"/>
    </g>
    <g id="line2d_102">
     <path d="M 50.057685 225.305937 
L 60.057685 225.305937 
L 70.057685 225.305937 
" style="fill: none; stroke: #31688e; stroke-width: 2; stroke-linecap: square"/>
    </g>
    <g id="text_12">
     <!-- centroids_10000_2.dat -->
     <g transform="translate(78.057685 228.805937) scale(0.1 -0.1)">
      <defs>
       <path id="DejaVuSans-63" d="M 3122 3366 
L 3122 2828 
Q 2878 2963 2633 3030 
Q 2388 3097 2138 3097 
Q 1578 3097 1268 2742 
Q 959 2388 959 1747 
Q 959 1106 1268 751 
Q 1578 397 2138 397 
Q 2388 397 2633 464 
Q 2878 531 3122 666 
L 3122 134 
Q 2881 22 2623 -34 
Q 2366 -91 2075 -91 
Q 1284 -91 818 406 
Q 353 903 353 1747 
Q 353 2603 823 3093 
Q 1294 3584 2113 3584 
Q 2378 3584 2631 3529 
Q 2884 3475 3122 3366 
z
" transform="scale(0.015625)"/>
       <path id="DejaVuSans-5f" d="M 3263 -1063 
L 3263 -1509 
L -63 -1509 
L -63 -1063 
L 3263 -1063 
z
" transform="scale(0.015625)"/>
      </defs>
      <use xlink:href="#DejaVuSans-63"/>
      <use xlink:href="#DejaVuSans-65" x="54.980469"/>
      <use xlink:href="#DejaVuSans-6e" x="116.503906"/>
      <use xlink:href="#DejaVuSans-74" x="179.882812"/>
      <use xlink:href="#DejaVuSans-72" x="219.091797"/>
      <use xlink:href="#DejaVuSans-6f" x="257.955078"/>
      <use xlink:href="#DejaVuSans-69" x="319.136719"/>
      <use xlink:href="#DejaVuSans-64" x="346.919922"/>
      <use xlink:href="#DejaVuSans-73" x="410.396484"/>
      <use xlink:href="#DejaVuSans-5f" x="462.496094"/>
      <use xlink:href="#DejaVuSans-31" x="512.496094"/>
      <use xlink:href="#DejaVuSans-30" x="576.119141"/>
      <use xlink:href="#DejaVuSans-30" x="639.742188"/>
      <use xlink:href="#DejaVuSans-30" x="703.365234"/>
      <use xlink:href="#DejaVuSans-30" x="766.988281"/>
      <use xlink:href="#DejaVuSans-5f" x="830.611328"/>
      <use xlink:href="#DejaVuSans-32" x="880.611328"/>
      <use xlink:href="#DejaVuSans-2e" x="944.234375"/>
      <use xlink:href="#DejaVuSans-64" x="976.021484"/>
      <use xlink:href="#DejaVuSans-61" x="1039.498047"/>
      <use xlink:href="#DejaVuSans-74" x="1100.777344"/>
     </g>
    </g>
    <g id="line2d_103">
     <path d="M 50.057685 240.262188 
L 60.057685 240.262188 
L 70.057685 240.262188 
" style="fill: none; stroke: #35b779; stroke-width: 2; stroke-linecap: square"/>
    </g>
    <g id="text_13">
     <!-- archive_1000000.dat -->
     <g transform="translate(78.057685 243.762188) scale(0.1 -0.1)">
      <defs>
       <path id="DejaVuSans-68" d="M 3513 2113 
L 3513 0 
L 2938 0 
L 2938 2094 
Q 2938 2591 2744 2837 
Q 2550 3084 2163 3084 
Q 1697 3084 1428 2787 
Q 1159 2491 1159 1978 
L 1159 0 
L 581 0 
L 581 4863 
L 1159 4863 
L 1159 2956 
Q 1366 3272 1645 3428 
Q 1925 3584 2291 3584 
Q 2894 3584 3203 3211 
Q 3513 2838 3513 2113 
z
" transform="scale(0.015625)"/>
      </defs>
      <use xlink:href="#DejaVuSans-61"/>
      <use xlink:href="#DejaVuSans-72" x="61.279297"/>
      <use xlink:href="#DejaVuSans-63" x="100.142578"/>
      <use xlink:href="#DejaVuSans-68" x="155.123047"/>
      <use xlink:href="#DejaVuSans-69" x="218.501953"/>
      <use xlink:href="#DejaVuSans-76" x="246.285156"/>
      <use xlink:href="#DejaVuSans-65" x="305.464844"/>
      <use xlink:href="#DejaVuSans-5f" x="366.988281"/>
      <use xlink:href="#DejaVuSans-31" x="416.988281"/>
      <use xlink:href="#DejaVuSans-30" x="480.611328"/>
      <use xlink:href="#DejaVuSans-30" x="544.234375"/>
      <use xlink:href="#DejaVuSans-30" x="607.857422"/>
      <use xlink:href="#DejaVuSans-30" x="671.480469"/>
      <use xlink:href="#DejaVuSans-30" x="735.103516"/>
      <use xlink:href="#DejaVuSans-30" x="798.726562"/>
      <use xlink:href="#DejaVuSans-2e" x="862.349609"/>
      <use xlink:href="#DejaVuSans-64" x="894.136719"/>
      <use xlink:href="#DejaVuSans-61" x="957.613281"/>
      <use xlink:href="#DejaVuSans-74" x="1018.892578"/>
     </g>
    </g>
   </g>
  </g>
 </g>
 <defs>
  <clipPath id="p63c4fc030e">
   <rect x="41.057685" y="26.88" width="380.142315" height="228.24"/>
  </clipPath>
 </defs>
</svg>
