<?xml version="1.0" encoding="utf-8" standalone="no"?>
<!DOCTYPE svg PUBLIC "-//W3C//DTD SVG 1.1//EN"
  "http://www.w3.org/Graphics/SVG/1.1/DTD/svg11.dtd">
<svg xmlns:xlink="http://www.w3.org/1999/xlink" width="432pt" height="288pt" viewBox="0 0 432 288" xmlns="http://www.w3.org/2000/svg" version="1.1">
 <metadata>
  <rdf:RDF xmlns:dc="http://purl.org/dc/elements/1.1/" xmlns:cc="http://creativecommons.org/ns#" xmlns:rdf="http://www.w3.org/1999/02/22-rdf-syntax-ns#">
   <cc:Work>
    <dc:type rdf:resource="http://purl.org/dc/dcmitype/StillImage"/>
    <dc:date>2022-12-09T14:35:45.437158</dc:date>
    <dc:format>image/svg+xml</dc:format>
    <dc:creator>
     <cc:Agent>
      <dc:title>Matplotlib v3.6.1, https://matplotlib.org/</dc:title>
     </cc:Agent>
    </dc:creator>
   </cc:Work>
  </rdf:RDF>
 </metadata>
 <defs>
  <style type="text/css">*{stroke-linejoin: round; stroke-linecap: butt}</style>
 </defs>
 <g id="figure_1">
  <g id="axes_1">
   <g id="patch_1">
    <path d="M 41.012685 255.12 
L 421.2 255.12 
L 421.2 26.88 
L 41.012685 26.88 
z
" style="fill: #ffffff"/>
   </g>
   <g id="matplotlib.axis_1">
    <g id="xtick_1">
     <g id="line2d_1">
      <defs>
       <path id="mcc744dcef1" d="M 0 0 
L 0 3.5 
" style="stroke: #000000; stroke-width: 0.8"/>
      </defs>
      <g>
       <use xlink:href="#mcc744dcef1" x="49.358325" y="260.12" style="stroke: #000000; stroke-width: 0.8"/>
      </g>
     </g>
     <g id="text_1">
      <!-- −0.75 -->
      <g transform="translate(34.035669 274.718437) scale(0.1 -0.1)">
       <defs>
        <path id="DejaVuSans-2212" d="M 678 2272 
L 4684 2272 
L 4684 1741 
L 678 1741 
L 678 2272 
z
" transform="scale(0.015625)"/>
        <path id="DejaVuSans-30" d="M 2034 4250 
Q 1547 4250 1301 3770 
Q 1056 3291 1056 2328 
Q 1056 1369 1301 889 
Q 1547 409 2034 409 
Q 2525 409 2770 889 
Q 3016 1369 3016 2328 
Q 3016 3291 2770 3770 
Q 2525 4250 2034 4250 
z
M 2034 4750 
Q 2819 4750 3233 4129 
Q 3647 3509 3647 2328 
Q 3647 1150 3233 529 
Q 2819 -91 2034 -91 
Q 1250 -91 836 529 
Q 422 1150 422 2328 
Q 422 3509 836 4129 
Q 1250 4750 2034 4750 
z
" transform="scale(0.015625)"/>
        <path id="DejaVuSans-2e" d="M 684 794 
L 1344 794 
L 1344 0 
L 684 0 
L 684 794 
z
" transform="scale(0.015625)"/>
        <path id="DejaVuSans-37" d="M 525 4666 
L 3525 4666 
L 3525 4397 
L 1831 0 
L 1172 0 
L 2766 4134 
L 525 4134 
L 525 4666 
z
" transform="scale(0.015625)"/>
        <path id="DejaVuSans-35" d="M 691 4666 
L 3169 4666 
L 3169 4134 
L 1269 4134 
L 1269 2991 
Q 1406 3038 1543 3061 
Q 1681 3084 1819 3084 
Q 2600 3084 3056 2656 
Q 3513 2228 3513 1497 
Q 3513 744 3044 326 
Q 2575 -91 1722 -91 
Q 1428 -91 1123 -41 
Q 819 9 494 109 
L 494 744 
Q 775 591 1075 516 
Q 1375 441 1709 441 
Q 2250 441 2565 725 
Q 2881 1009 2881 1497 
Q 2881 1984 2565 2268 
Q 2250 2553 1709 2553 
Q 1456 2553 1204 2497 
Q 953 2441 691 2322 
L 691 4666 
z
" transform="scale(0.015625)"/>
       </defs>
       <use xlink:href="#DejaVuSans-2212"/>
       <use xlink:href="#DejaVuSans-30" x="83.789062"/>
       <use xlink:href="#DejaVuSans-2e" x="147.412109"/>
       <use xlink:href="#DejaVuSans-37" x="179.199219"/>
       <use xlink:href="#DejaVuSans-35" x="242.822266"/>
      </g>
     </g>
    </g>
    <g id="xtick_2">
     <g id="line2d_2">
      <g>
       <use xlink:href="#mcc744dcef1" x="100.056908" y="260.12" style="stroke: #000000; stroke-width: 0.8"/>
      </g>
     </g>
     <g id="text_2">
      <!-- −0.50 -->
      <g transform="translate(84.734252 274.718437) scale(0.1 -0.1)">
       <use xlink:href="#DejaVuSans-2212"/>
       <use xlink:href="#DejaVuSans-30" x="83.789062"/>
       <use xlink:href="#DejaVuSans-2e" x="147.412109"/>
       <use xlink:href="#DejaVuSans-35" x="179.199219"/>
       <use xlink:href="#DejaVuSans-30" x="242.822266"/>
      </g>
     </g>
    </g>
    <g id="xtick_3">
     <g id="line2d_3">
      <g>
       <use xlink:href="#mcc744dcef1" x="150.755491" y="260.12" style="stroke: #000000; stroke-width: 0.8"/>
      </g>
     </g>
     <g id="text_3">
      <!-- −0.25 -->
      <g transform="translate(135.432835 274.718437) scale(0.1 -0.1)">
       <defs>
        <path id="DejaVuSans-32" d="M 1228 531 
L 3431 531 
L 3431 0 
L 469 0 
L 469 531 
Q 828 903 1448 1529 
Q 2069 2156 2228 2338 
Q 2531 2678 2651 2914 
Q 2772 3150 2772 3378 
Q 2772 3750 2511 3984 
Q 2250 4219 1831 4219 
Q 1534 4219 1204 4116 
Q 875 4013 500 3803 
L 500 4441 
Q 881 4594 1212 4672 
Q 1544 4750 1819 4750 
Q 2544 4750 2975 4387 
Q 3406 4025 3406 3419 
Q 3406 3131 3298 2873 
Q 3191 2616 2906 2266 
Q 2828 2175 2409 1742 
Q 1991 1309 1228 531 
z
" transform="scale(0.015625)"/>
       </defs>
       <use xlink:href="#DejaVuSans-2212"/>
       <use xlink:href="#DejaVuSans-30" x="83.789062"/>
       <use xlink:href="#DejaVuSans-2e" x="147.412109"/>
       <use xlink:href="#DejaVuSans-32" x="179.199219"/>
       <use xlink:href="#DejaVuSans-35" x="242.822266"/>
      </g>
     </g>
    </g>
    <g id="xtick_4">
     <g id="line2d_4">
      <g>
       <use xlink:href="#mcc744dcef1" x="201.454074" y="260.12" style="stroke: #000000; stroke-width: 0.8"/>
      </g>
     </g>
     <g id="text_4">
      <!-- 0.00 -->
      <g transform="translate(190.321261 274.718437) scale(0.1 -0.1)">
       <use xlink:href="#DejaVuSans-30"/>
       <use xlink:href="#DejaVuSans-2e" x="63.623047"/>
       <use xlink:href="#DejaVuSans-30" x="95.410156"/>
       <use xlink:href="#DejaVuSans-30" x="159.033203"/>
      </g>
     </g>
    </g>
    <g id="xtick_5">
     <g id="line2d_5">
      <g>
       <use xlink:href="#mcc744dcef1" x="252.152657" y="260.12" style="stroke: #000000; stroke-width: 0.8"/>
      </g>
     </g>
     <g id="text_5">
      <!-- 0.25 -->
      <g transform="translate(241.019844 274.718437) scale(0.1 -0.1)">
       <use xlink:href="#DejaVuSans-30"/>
       <use xlink:href="#DejaVuSans-2e" x="63.623047"/>
       <use xlink:href="#DejaVuSans-32" x="95.410156"/>
       <use xlink:href="#DejaVuSans-35" x="159.033203"/>
      </g>
     </g>
    </g>
    <g id="xtick_6">
     <g id="line2d_6">
      <g>
       <use xlink:href="#mcc744dcef1" x="302.85124" y="260.12" style="stroke: #000000; stroke-width: 0.8"/>
      </g>
     </g>
     <g id="text_6">
      <!-- 0.50 -->
      <g transform="translate(291.718427 274.718437) scale(0.1 -0.1)">
       <use xlink:href="#DejaVuSans-30"/>
       <use xlink:href="#DejaVuSans-2e" x="63.623047"/>
       <use xlink:href="#DejaVuSans-35" x="95.410156"/>
       <use xlink:href="#DejaVuSans-30" x="159.033203"/>
      </g>
     </g>
    </g>
    <g id="xtick_7">
     <g id="line2d_7">
      <g>
       <use xlink:href="#mcc744dcef1" x="353.549823" y="260.12" style="stroke: #000000; stroke-width: 0.8"/>
      </g>
     </g>
     <g id="text_7">
      <!-- 0.75 -->
      <g transform="translate(342.41701 274.718437) scale(0.1 -0.1)">
       <use xlink:href="#DejaVuSans-30"/>
       <use xlink:href="#DejaVuSans-2e" x="63.623047"/>
       <use xlink:href="#DejaVuSans-37" x="95.410156"/>
       <use xlink:href="#DejaVuSans-35" x="159.033203"/>
      </g>
     </g>
    </g>
    <g id="xtick_8">
     <g id="line2d_8">
      <g>
       <use xlink:href="#mcc744dcef1" x="404.248406" y="260.12" style="stroke: #000000; stroke-width: 0.8"/>
      </g>
     </g>
     <g id="text_8">
      <!-- 1.00 -->
      <g transform="translate(393.115593 274.718437) scale(0.1 -0.1)">
       <defs>
        <path id="DejaVuSans-31" d="M 794 531 
L 1825 531 
L 1825 4091 
L 703 3866 
L 703 4441 
L 1819 4666 
L 2450 4666 
L 2450 531 
L 3481 531 
L 3481 0 
L 794 0 
L 794 531 
z
" transform="scale(0.015625)"/>
       </defs>
       <use xlink:href="#DejaVuSans-31"/>
       <use xlink:href="#DejaVuSans-2e" x="63.623047"/>
       <use xlink:href="#DejaVuSans-30" x="95.410156"/>
       <use xlink:href="#DejaVuSans-30" x="159.033203"/>
      </g>
     </g>
    </g>
    <g id="xtick_9">
     <g id="line2d_9">
      <path d="M 74.707617 255.12 
L 74.707617 26.88 
" clip-path="url(#pc13c45ede8)" style="fill: none; stroke: #b0b0b0; stroke-opacity: 0.5; stroke-width: 0.5; stroke-linecap: square"/>
     </g>
     <g id="line2d_10">
      <defs>
       <path id="m0e291f1282" d="M 0 0 
L 0 2 
" style="stroke: #000000; stroke-width: 0.6"/>
      </defs>
      <g>
       <use xlink:href="#m0e291f1282" x="74.707617" y="260.12" style="stroke: #000000; stroke-width: 0.6"/>
      </g>
     </g>
    </g>
    <g id="xtick_10">
     <g id="line2d_11">
      <path d="M 125.406199 255.12 
L 125.406199 26.88 
" clip-path="url(#pc13c45ede8)" style="fill: none; stroke: #b0b0b0; stroke-opacity: 0.5; stroke-width: 0.5; stroke-linecap: square"/>
     </g>
     <g id="line2d_12">
      <g>
       <use xlink:href="#m0e291f1282" x="125.406199" y="260.12" style="stroke: #000000; stroke-width: 0.6"/>
      </g>
     </g>
    </g>
    <g id="xtick_11">
     <g id="line2d_13">
      <path d="M 176.104782 255.12 
L 176.104782 26.88 
" clip-path="url(#pc13c45ede8)" style="fill: none; stroke: #b0b0b0; stroke-opacity: 0.5; stroke-width: 0.5; stroke-linecap: square"/>
     </g>
     <g id="line2d_14">
      <g>
       <use xlink:href="#m0e291f1282" x="176.104782" y="260.12" style="stroke: #000000; stroke-width: 0.6"/>
      </g>
     </g>
    </g>
    <g id="xtick_12">
     <g id="line2d_15">
      <path d="M 226.803365 255.12 
L 226.803365 26.88 
" clip-path="url(#pc13c45ede8)" style="fill: none; stroke: #b0b0b0; stroke-opacity: 0.5; stroke-width: 0.5; stroke-linecap: square"/>
     </g>
     <g id="line2d_16">
      <g>
       <use xlink:href="#m0e291f1282" x="226.803365" y="260.12" style="stroke: #000000; stroke-width: 0.6"/>
      </g>
     </g>
    </g>
    <g id="xtick_13">
     <g id="line2d_17">
      <path d="M 277.501948 255.12 
L 277.501948 26.88 
" clip-path="url(#pc13c45ede8)" style="fill: none; stroke: #b0b0b0; stroke-opacity: 0.5; stroke-width: 0.5; stroke-linecap: square"/>
     </g>
     <g id="line2d_18">
      <g>
       <use xlink:href="#m0e291f1282" x="277.501948" y="260.12" style="stroke: #000000; stroke-width: 0.6"/>
      </g>
     </g>
    </g>
    <g id="xtick_14">
     <g id="line2d_19">
      <path d="M 328.200531 255.12 
L 328.200531 26.88 
" clip-path="url(#pc13c45ede8)" style="fill: none; stroke: #b0b0b0; stroke-opacity: 0.5; stroke-width: 0.5; stroke-linecap: square"/>
     </g>
     <g id="line2d_20">
      <g>
       <use xlink:href="#m0e291f1282" x="328.200531" y="260.12" style="stroke: #000000; stroke-width: 0.6"/>
      </g>
     </g>
    </g>
    <g id="xtick_15">
     <g id="line2d_21">
      <path d="M 378.899114 255.12 
L 378.899114 26.88 
" clip-path="url(#pc13c45ede8)" style="fill: none; stroke: #b0b0b0; stroke-opacity: 0.5; stroke-width: 0.5; stroke-linecap: square"/>
     </g>
     <g id="line2d_22">
      <g>
       <use xlink:href="#m0e291f1282" x="378.899114" y="260.12" style="stroke: #000000; stroke-width: 0.6"/>
      </g>
     </g>
    </g>
   </g>
   <g id="matplotlib.axis_2">
    <g id="ytick_1">
     <g id="line2d_23">
      <path d="M 41.012685 244.745455 
L 421.2 244.745455 
" clip-path="url(#pc13c45ede8)" style="fill: none; stroke: #e6e6e6; stroke-linecap: square"/>
     </g>
     <g id="line2d_24">
      <defs>
       <path id="m5c19c8335d" d="M 0 0 
L -3.5 0 
" style="stroke: #000000; stroke-width: 0.8"/>
      </defs>
      <g>
       <use xlink:href="#m5c19c8335d" x="36.012685" y="244.745455" style="stroke: #000000; stroke-width: 0.8"/>
      </g>
     </g>
     <g id="text_9">
      <!-- $\mathdefault{10^{0}}$ -->
      <g transform="translate(11.412685 248.544673) scale(0.1 -0.1)">
       <use xlink:href="#DejaVuSans-31" transform="translate(0 0.765625)"/>
       <use xlink:href="#DejaVuSans-30" transform="translate(63.623047 0.765625)"/>
       <use xlink:href="#DejaVuSans-30" transform="translate(128.203125 39.046875) scale(0.7)"/>
      </g>
     </g>
    </g>
    <g id="ytick_2">
     <g id="line2d_25">
      <path d="M 41.012685 188.649898 
L 421.2 188.649898 
" clip-path="url(#pc13c45ede8)" style="fill: none; stroke: #e6e6e6; stroke-linecap: square"/>
     </g>
     <g id="line2d_26">
      <g>
       <use xlink:href="#m5c19c8335d" x="36.012685" y="188.649898" style="stroke: #000000; stroke-width: 0.8"/>
      </g>
     </g>
     <g id="text_10">
      <!-- $\mathdefault{10^{1}}$ -->
      <g transform="translate(11.412685 192.449116) scale(0.1 -0.1)">
       <use xlink:href="#DejaVuSans-31" transform="translate(0 0.684375)"/>
       <use xlink:href="#DejaVuSans-30" transform="translate(63.623047 0.684375)"/>
       <use xlink:href="#DejaVuSans-31" transform="translate(128.203125 38.965625) scale(0.7)"/>
      </g>
     </g>
    </g>
    <g id="ytick_3">
     <g id="line2d_27">
      <path d="M 41.012685 132.554341 
L 421.2 132.554341 
" clip-path="url(#pc13c45ede8)" style="fill: none; stroke: #e6e6e6; stroke-linecap: square"/>
     </g>
     <g id="line2d_28">
      <g>
       <use xlink:href="#m5c19c8335d" x="36.012685" y="132.554341" style="stroke: #000000; stroke-width: 0.8"/>
      </g>
     </g>
     <g id="text_11">
      <!-- $\mathdefault{10^{2}}$ -->
      <g transform="translate(11.412685 136.35356) scale(0.1 -0.1)">
       <use xlink:href="#DejaVuSans-31" transform="translate(0 0.765625)"/>
       <use xlink:href="#DejaVuSans-30" transform="translate(63.623047 0.765625)"/>
       <use xlink:href="#DejaVuSans-32" transform="translate(128.203125 39.046875) scale(0.7)"/>
      </g>
     </g>
    </g>
    <g id="ytick_4">
     <g id="line2d_29">
      <path d="M 41.012685 76.458784 
L 421.2 76.458784 
" clip-path="url(#pc13c45ede8)" style="fill: none; stroke: #e6e6e6; stroke-linecap: square"/>
     </g>
     <g id="line2d_30">
      <g>
       <use xlink:href="#m5c19c8335d" x="36.012685" y="76.458784" style="stroke: #000000; stroke-width: 0.8"/>
      </g>
     </g>
     <g id="text_12">
      <!-- $\mathdefault{10^{3}}$ -->
      <g transform="translate(11.412685 80.258003) scale(0.1 -0.1)">
       <defs>
        <path id="DejaVuSans-33" d="M 2597 2516 
Q 3050 2419 3304 2112 
Q 3559 1806 3559 1356 
Q 3559 666 3084 287 
Q 2609 -91 1734 -91 
Q 1441 -91 1130 -33 
Q 819 25 488 141 
L 488 750 
Q 750 597 1062 519 
Q 1375 441 1716 441 
Q 2309 441 2620 675 
Q 2931 909 2931 1356 
Q 2931 1769 2642 2001 
Q 2353 2234 1838 2234 
L 1294 2234 
L 1294 2753 
L 1863 2753 
Q 2328 2753 2575 2939 
Q 2822 3125 2822 3475 
Q 2822 3834 2567 4026 
Q 2313 4219 1838 4219 
Q 1578 4219 1281 4162 
Q 984 4106 628 3988 
L 628 4550 
Q 988 4650 1302 4700 
Q 1616 4750 1894 4750 
Q 2613 4750 3031 4423 
Q 3450 4097 3450 3541 
Q 3450 3153 3228 2886 
Q 3006 2619 2597 2516 
z
" transform="scale(0.015625)"/>
       </defs>
       <use xlink:href="#DejaVuSans-31" transform="translate(0 0.765625)"/>
       <use xlink:href="#DejaVuSans-30" transform="translate(63.623047 0.765625)"/>
       <use xlink:href="#DejaVuSans-33" transform="translate(128.203125 39.046875) scale(0.7)"/>
      </g>
     </g>
    </g>
    <g id="ytick_5">
     <g id="line2d_31">
      <path d="M 41.012685 253.434766 
L 421.2 253.434766 
" clip-path="url(#pc13c45ede8)" style="fill: none; stroke: #b0b0b0; stroke-opacity: 0.5; stroke-width: 0.5; stroke-linecap: square"/>
     </g>
     <g id="line2d_32">
      <defs>
       <path id="m9c6bb3ed55" d="M 0 0 
L -2 0 
" style="stroke: #000000; stroke-width: 0.6"/>
      </defs>
      <g>
       <use xlink:href="#m9c6bb3ed55" x="36.012685" y="253.434766" style="stroke: #000000; stroke-width: 0.6"/>
      </g>
     </g>
    </g>
    <g id="ytick_6">
     <g id="line2d_33">
      <path d="M 41.012685 250.181676 
L 421.2 250.181676 
" clip-path="url(#pc13c45ede8)" style="fill: none; stroke: #b0b0b0; stroke-opacity: 0.5; stroke-width: 0.5; stroke-linecap: square"/>
     </g>
     <g id="line2d_34">
      <g>
       <use xlink:href="#m9c6bb3ed55" x="36.012685" y="250.181676" style="stroke: #000000; stroke-width: 0.6"/>
      </g>
     </g>
    </g>
    <g id="ytick_7">
     <g id="line2d_35">
      <path d="M 41.012685 247.312246 
L 421.2 247.312246 
" clip-path="url(#pc13c45ede8)" style="fill: none; stroke: #b0b0b0; stroke-opacity: 0.5; stroke-width: 0.5; stroke-linecap: square"/>
     </g>
     <g id="line2d_36">
      <g>
       <use xlink:href="#m9c6bb3ed55" x="36.012685" y="247.312246" style="stroke: #000000; stroke-width: 0.6"/>
      </g>
     </g>
    </g>
    <g id="ytick_8">
     <g id="line2d_37">
      <path d="M 41.012685 227.859009 
L 421.2 227.859009 
" clip-path="url(#pc13c45ede8)" style="fill: none; stroke: #b0b0b0; stroke-opacity: 0.5; stroke-width: 0.5; stroke-linecap: square"/>
     </g>
     <g id="line2d_38">
      <g>
       <use xlink:href="#m9c6bb3ed55" x="36.012685" y="227.859009" style="stroke: #000000; stroke-width: 0.6"/>
      </g>
     </g>
    </g>
    <g id="ytick_9">
     <g id="line2d_39">
      <path d="M 41.012685 217.981072 
L 421.2 217.981072 
" clip-path="url(#pc13c45ede8)" style="fill: none; stroke: #b0b0b0; stroke-opacity: 0.5; stroke-width: 0.5; stroke-linecap: square"/>
     </g>
     <g id="line2d_40">
      <g>
       <use xlink:href="#m9c6bb3ed55" x="36.012685" y="217.981072" style="stroke: #000000; stroke-width: 0.6"/>
      </g>
     </g>
    </g>
    <g id="ytick_10">
     <g id="line2d_41">
      <path d="M 41.012685 210.972564 
L 421.2 210.972564 
" clip-path="url(#pc13c45ede8)" style="fill: none; stroke: #b0b0b0; stroke-opacity: 0.5; stroke-width: 0.5; stroke-linecap: square"/>
     </g>
     <g id="line2d_42">
      <g>
       <use xlink:href="#m9c6bb3ed55" x="36.012685" y="210.972564" style="stroke: #000000; stroke-width: 0.6"/>
      </g>
     </g>
    </g>
    <g id="ytick_11">
     <g id="line2d_43">
      <path d="M 41.012685 205.536343 
L 421.2 205.536343 
" clip-path="url(#pc13c45ede8)" style="fill: none; stroke: #b0b0b0; stroke-opacity: 0.5; stroke-width: 0.5; stroke-linecap: square"/>
     </g>
     <g id="line2d_44">
      <g>
       <use xlink:href="#m9c6bb3ed55" x="36.012685" y="205.536343" style="stroke: #000000; stroke-width: 0.6"/>
      </g>
     </g>
    </g>
    <g id="ytick_12">
     <g id="line2d_45">
      <path d="M 41.012685 201.094627 
L 421.2 201.094627 
" clip-path="url(#pc13c45ede8)" style="fill: none; stroke: #b0b0b0; stroke-opacity: 0.5; stroke-width: 0.5; stroke-linecap: square"/>
     </g>
     <g id="line2d_46">
      <g>
       <use xlink:href="#m9c6bb3ed55" x="36.012685" y="201.094627" style="stroke: #000000; stroke-width: 0.6"/>
      </g>
     </g>
    </g>
    <g id="ytick_13">
     <g id="line2d_47">
      <path d="M 41.012685 197.339209 
L 421.2 197.339209 
" clip-path="url(#pc13c45ede8)" style="fill: none; stroke: #b0b0b0; stroke-opacity: 0.5; stroke-width: 0.5; stroke-linecap: square"/>
     </g>
     <g id="line2d_48">
      <g>
       <use xlink:href="#m9c6bb3ed55" x="36.012685" y="197.339209" style="stroke: #000000; stroke-width: 0.6"/>
      </g>
     </g>
    </g>
    <g id="ytick_14">
     <g id="line2d_49">
      <path d="M 41.012685 194.086119 
L 421.2 194.086119 
" clip-path="url(#pc13c45ede8)" style="fill: none; stroke: #b0b0b0; stroke-opacity: 0.5; stroke-width: 0.5; stroke-linecap: square"/>
     </g>
     <g id="line2d_50">
      <g>
       <use xlink:href="#m9c6bb3ed55" x="36.012685" y="194.086119" style="stroke: #000000; stroke-width: 0.6"/>
      </g>
     </g>
    </g>
    <g id="ytick_15">
     <g id="line2d_51">
      <path d="M 41.012685 191.21669 
L 421.2 191.21669 
" clip-path="url(#pc13c45ede8)" style="fill: none; stroke: #b0b0b0; stroke-opacity: 0.5; stroke-width: 0.5; stroke-linecap: square"/>
     </g>
     <g id="line2d_52">
      <g>
       <use xlink:href="#m9c6bb3ed55" x="36.012685" y="191.21669" style="stroke: #000000; stroke-width: 0.6"/>
      </g>
     </g>
    </g>
    <g id="ytick_16">
     <g id="line2d_53">
      <path d="M 41.012685 171.763453 
L 421.2 171.763453 
" clip-path="url(#pc13c45ede8)" style="fill: none; stroke: #b0b0b0; stroke-opacity: 0.5; stroke-width: 0.5; stroke-linecap: square"/>
     </g>
     <g id="line2d_54">
      <g>
       <use xlink:href="#m9c6bb3ed55" x="36.012685" y="171.763453" style="stroke: #000000; stroke-width: 0.6"/>
      </g>
     </g>
    </g>
    <g id="ytick_17">
     <g id="line2d_55">
      <path d="M 41.012685 161.885515 
L 421.2 161.885515 
" clip-path="url(#pc13c45ede8)" style="fill: none; stroke: #b0b0b0; stroke-opacity: 0.5; stroke-width: 0.5; stroke-linecap: square"/>
     </g>
     <g id="line2d_56">
      <g>
       <use xlink:href="#m9c6bb3ed55" x="36.012685" y="161.885515" style="stroke: #000000; stroke-width: 0.6"/>
      </g>
     </g>
    </g>
    <g id="ytick_18">
     <g id="line2d_57">
      <path d="M 41.012685 154.877007 
L 421.2 154.877007 
" clip-path="url(#pc13c45ede8)" style="fill: none; stroke: #b0b0b0; stroke-opacity: 0.5; stroke-width: 0.5; stroke-linecap: square"/>
     </g>
     <g id="line2d_58">
      <g>
       <use xlink:href="#m9c6bb3ed55" x="36.012685" y="154.877007" style="stroke: #000000; stroke-width: 0.6"/>
      </g>
     </g>
    </g>
    <g id="ytick_19">
     <g id="line2d_59">
      <path d="M 41.012685 149.440786 
L 421.2 149.440786 
" clip-path="url(#pc13c45ede8)" style="fill: none; stroke: #b0b0b0; stroke-opacity: 0.5; stroke-width: 0.5; stroke-linecap: square"/>
     </g>
     <g id="line2d_60">
      <g>
       <use xlink:href="#m9c6bb3ed55" x="36.012685" y="149.440786" style="stroke: #000000; stroke-width: 0.6"/>
      </g>
     </g>
    </g>
    <g id="ytick_20">
     <g id="line2d_61">
      <path d="M 41.012685 144.99907 
L 421.2 144.99907 
" clip-path="url(#pc13c45ede8)" style="fill: none; stroke: #b0b0b0; stroke-opacity: 0.5; stroke-width: 0.5; stroke-linecap: square"/>
     </g>
     <g id="line2d_62">
      <g>
       <use xlink:href="#m9c6bb3ed55" x="36.012685" y="144.99907" style="stroke: #000000; stroke-width: 0.6"/>
      </g>
     </g>
    </g>
    <g id="ytick_21">
     <g id="line2d_63">
      <path d="M 41.012685 141.243653 
L 421.2 141.243653 
" clip-path="url(#pc13c45ede8)" style="fill: none; stroke: #b0b0b0; stroke-opacity: 0.5; stroke-width: 0.5; stroke-linecap: square"/>
     </g>
     <g id="line2d_64">
      <g>
       <use xlink:href="#m9c6bb3ed55" x="36.012685" y="141.243653" style="stroke: #000000; stroke-width: 0.6"/>
      </g>
     </g>
    </g>
    <g id="ytick_22">
     <g id="line2d_65">
      <path d="M 41.012685 137.990562 
L 421.2 137.990562 
" clip-path="url(#pc13c45ede8)" style="fill: none; stroke: #b0b0b0; stroke-opacity: 0.5; stroke-width: 0.5; stroke-linecap: square"/>
     </g>
     <g id="line2d_66">
      <g>
       <use xlink:href="#m9c6bb3ed55" x="36.012685" y="137.990562" style="stroke: #000000; stroke-width: 0.6"/>
      </g>
     </g>
    </g>
    <g id="ytick_23">
     <g id="line2d_67">
      <path d="M 41.012685 135.121133 
L 421.2 135.121133 
" clip-path="url(#pc13c45ede8)" style="fill: none; stroke: #b0b0b0; stroke-opacity: 0.5; stroke-width: 0.5; stroke-linecap: square"/>
     </g>
     <g id="line2d_68">
      <g>
       <use xlink:href="#m9c6bb3ed55" x="36.012685" y="135.121133" style="stroke: #000000; stroke-width: 0.6"/>
      </g>
     </g>
    </g>
    <g id="ytick_24">
     <g id="line2d_69">
      <path d="M 41.012685 115.667896 
L 421.2 115.667896 
" clip-path="url(#pc13c45ede8)" style="fill: none; stroke: #b0b0b0; stroke-opacity: 0.5; stroke-width: 0.5; stroke-linecap: square"/>
     </g>
     <g id="line2d_70">
      <g>
       <use xlink:href="#m9c6bb3ed55" x="36.012685" y="115.667896" style="stroke: #000000; stroke-width: 0.6"/>
      </g>
     </g>
    </g>
    <g id="ytick_25">
     <g id="line2d_71">
      <path d="M 41.012685 105.789959 
L 421.2 105.789959 
" clip-path="url(#pc13c45ede8)" style="fill: none; stroke: #b0b0b0; stroke-opacity: 0.5; stroke-width: 0.5; stroke-linecap: square"/>
     </g>
     <g id="line2d_72">
      <g>
       <use xlink:href="#m9c6bb3ed55" x="36.012685" y="105.789959" style="stroke: #000000; stroke-width: 0.6"/>
      </g>
     </g>
    </g>
    <g id="ytick_26">
     <g id="line2d_73">
      <path d="M 41.012685 98.781451 
L 421.2 98.781451 
" clip-path="url(#pc13c45ede8)" style="fill: none; stroke: #b0b0b0; stroke-opacity: 0.5; stroke-width: 0.5; stroke-linecap: square"/>
     </g>
     <g id="line2d_74">
      <g>
       <use xlink:href="#m9c6bb3ed55" x="36.012685" y="98.781451" style="stroke: #000000; stroke-width: 0.6"/>
      </g>
     </g>
    </g>
    <g id="ytick_27">
     <g id="line2d_75">
      <path d="M 41.012685 93.345229 
L 421.2 93.345229 
" clip-path="url(#pc13c45ede8)" style="fill: none; stroke: #b0b0b0; stroke-opacity: 0.5; stroke-width: 0.5; stroke-linecap: square"/>
     </g>
     <g id="line2d_76">
      <g>
       <use xlink:href="#m9c6bb3ed55" x="36.012685" y="93.345229" style="stroke: #000000; stroke-width: 0.6"/>
      </g>
     </g>
    </g>
    <g id="ytick_28">
     <g id="line2d_77">
      <path d="M 41.012685 88.903513 
L 421.2 88.903513 
" clip-path="url(#pc13c45ede8)" style="fill: none; stroke: #b0b0b0; stroke-opacity: 0.5; stroke-width: 0.5; stroke-linecap: square"/>
     </g>
     <g id="line2d_78">
      <g>
       <use xlink:href="#m9c6bb3ed55" x="36.012685" y="88.903513" style="stroke: #000000; stroke-width: 0.6"/>
      </g>
     </g>
    </g>
    <g id="ytick_29">
     <g id="line2d_79">
      <path d="M 41.012685 85.148096 
L 421.2 85.148096 
" clip-path="url(#pc13c45ede8)" style="fill: none; stroke: #b0b0b0; stroke-opacity: 0.5; stroke-width: 0.5; stroke-linecap: square"/>
     </g>
     <g id="line2d_80">
      <g>
       <use xlink:href="#m9c6bb3ed55" x="36.012685" y="85.148096" style="stroke: #000000; stroke-width: 0.6"/>
      </g>
     </g>
    </g>
    <g id="ytick_30">
     <g id="line2d_81">
      <path d="M 41.012685 81.895005 
L 421.2 81.895005 
" clip-path="url(#pc13c45ede8)" style="fill: none; stroke: #b0b0b0; stroke-opacity: 0.5; stroke-width: 0.5; stroke-linecap: square"/>
     </g>
     <g id="line2d_82">
      <g>
       <use xlink:href="#m9c6bb3ed55" x="36.012685" y="81.895005" style="stroke: #000000; stroke-width: 0.6"/>
      </g>
     </g>
    </g>
    <g id="ytick_31">
     <g id="line2d_83">
      <path d="M 41.012685 79.025576 
L 421.2 79.025576 
" clip-path="url(#pc13c45ede8)" style="fill: none; stroke: #b0b0b0; stroke-opacity: 0.5; stroke-width: 0.5; stroke-linecap: square"/>
     </g>
     <g id="line2d_84">
      <g>
       <use xlink:href="#m9c6bb3ed55" x="36.012685" y="79.025576" style="stroke: #000000; stroke-width: 0.6"/>
      </g>
     </g>
    </g>
    <g id="ytick_32">
     <g id="line2d_85">
      <path d="M 41.012685 59.572339 
L 421.2 59.572339 
" clip-path="url(#pc13c45ede8)" style="fill: none; stroke: #b0b0b0; stroke-opacity: 0.5; stroke-width: 0.5; stroke-linecap: square"/>
     </g>
     <g id="line2d_86">
      <g>
       <use xlink:href="#m9c6bb3ed55" x="36.012685" y="59.572339" style="stroke: #000000; stroke-width: 0.6"/>
      </g>
     </g>
    </g>
    <g id="ytick_33">
     <g id="line2d_87">
      <path d="M 41.012685 49.694402 
L 421.2 49.694402 
" clip-path="url(#pc13c45ede8)" style="fill: none; stroke: #b0b0b0; stroke-opacity: 0.5; stroke-width: 0.5; stroke-linecap: square"/>
     </g>
     <g id="line2d_88">
      <g>
       <use xlink:href="#m9c6bb3ed55" x="36.012685" y="49.694402" style="stroke: #000000; stroke-width: 0.6"/>
      </g>
     </g>
    </g>
    <g id="ytick_34">
     <g id="line2d_89">
      <path d="M 41.012685 42.685894 
L 421.2 42.685894 
" clip-path="url(#pc13c45ede8)" style="fill: none; stroke: #b0b0b0; stroke-opacity: 0.5; stroke-width: 0.5; stroke-linecap: square"/>
     </g>
     <g id="line2d_90">
      <g>
       <use xlink:href="#m9c6bb3ed55" x="36.012685" y="42.685894" style="stroke: #000000; stroke-width: 0.6"/>
      </g>
     </g>
    </g>
    <g id="ytick_35">
     <g id="line2d_91">
      <path d="M 41.012685 37.249673 
L 421.2 37.249673 
" clip-path="url(#pc13c45ede8)" style="fill: none; stroke: #b0b0b0; stroke-opacity: 0.5; stroke-width: 0.5; stroke-linecap: square"/>
     </g>
     <g id="line2d_92">
      <g>
       <use xlink:href="#m9c6bb3ed55" x="36.012685" y="37.249673" style="stroke: #000000; stroke-width: 0.6"/>
      </g>
     </g>
    </g>
    <g id="ytick_36">
     <g id="line2d_93">
      <path d="M 41.012685 32.807956 
L 421.2 32.807956 
" clip-path="url(#pc13c45ede8)" style="fill: none; stroke: #b0b0b0; stroke-opacity: 0.5; stroke-width: 0.5; stroke-linecap: square"/>
     </g>
     <g id="line2d_94">
      <g>
       <use xlink:href="#m9c6bb3ed55" x="36.012685" y="32.807956" style="stroke: #000000; stroke-width: 0.6"/>
      </g>
     </g>
    </g>
    <g id="ytick_37">
     <g id="line2d_95">
      <path d="M 41.012685 29.052539 
L 421.2 29.052539 
" clip-path="url(#pc13c45ede8)" style="fill: none; stroke: #b0b0b0; stroke-opacity: 0.5; stroke-width: 0.5; stroke-linecap: square"/>
     </g>
     <g id="line2d_96">
      <g>
       <use xlink:href="#m9c6bb3ed55" x="36.012685" y="29.052539" style="stroke: #000000; stroke-width: 0.6"/>
      </g>
     </g>
    </g>
   </g>
   <g id="line2d_97">
    <path d="M 403.858117 289 
L 403.759504 201.094627 
L 403.444783 173.013059 
L 402.939751 154.275446 
L 402.511724 147.565862 
L 402.449149 146.248677 
L 402.2923 144.596383 
L 402.170787 142.677124 
L 402.131334 142.310772 
L 401.925772 141.949847 
L 401.675511 140.898087 
L 401.44001 139.88986 
L 401.298973 138.921707 
L 400.980053 135.668616 
L 399.817594 128.938534 
L 399.715977 128.112625 
L 399.63917 127.511064 
L 399.554466 126.540338 
L 399.283379 125.975942 
L 399.208738 125.243196 
L 399.040115 124.707746 
L 398.916526 124.183812 
L 398.40501 122.193972 
L 398.335739 121.720909 
L 398.155511 121.256857 
L 397.826559 120.651559 
L 397.648268 119.915491 
L 397.482033 119.342242 
L 397.458738 119.201012 
L 397.257718 119.060597 
L 397.143776 118.370409 
L 396.232534 114.363536 
L 396.063192 114.133704 
L 395.940852 113.680445 
L 395.378882 112.157324 
L 394.892707 110.823493 
L 394.702427 110.624618 
L 394.657406 110.427354 
L 394.33486 110.231675 
L 394.237997 109.941071 
L 394.007478 109.18266 
L 392.877016 106.365142 
L 392.720209 105.789959 
L 392.573911 105.467278 
L 392.474717 105.228043 
L 392.442939 105.148816 
L 392.236215 104.991133 
L 392.119507 104.678796 
L 391.814345 104.447143 
L 391.13788 102.956648 
L 390.918974 102.740735 
L 390.74052 102.385079 
L 390.311717 101.55211 
L 390.228758 101.416009 
L 390.115656 101.213273 
L 389.900275 100.746681 
L 389.617113 99.967031 
L 389.424503 99.46079 
L 389.395547 99.335856 
L 389.010982 99.087895 
L 388.973666 99.026297 
L 388.716302 98.842432 
L 388.593961 98.539041 
L 388.309557 98.239381 
L 387.978921 97.767464 
L 387.795504 97.650899 
L 387.612581 97.419429 
L 386.95052 96.12954 
L 386.57437 95.803986 
L 386.487284 95.589341 
L 386.072151 95.218205 
L 385.895567 95.008638 
L 385.73736 94.749189 
L 385.486449 94.543602 
L 385.368562 94.238437 
L 385.074443 93.987021 
L 384.939315 93.78774 
L 384.631933 93.442873 
L 384.533838 93.345229 
L 384.295649 93.102819 
L 383.704571 92.483615 
L 383.575148 92.249589 
L 382.475569 90.758956 
L 382.038149 90.540852 
L 380.775015 89.06647 
L 380.648275 88.862944 
L 379.863191 88.104688 
L 379.595706 87.753588 
L 379.371363 87.560697 
L 379.170885 87.217296 
L 378.435484 86.507855 
L 378.427993 86.471082 
L 377.883549 86.215215 
L 377.877037 86.142601 
L 377.631881 85.998019 
L 377.278148 85.604787 
L 376.864763 85.217801 
L 376.400286 84.836867 
L 376.343903 84.665664 
L 375.784244 84.3605 
L 375.57603 84.05911 
L 375.026402 83.761404 
L 374.912552 83.630249 
L 374.751895 83.467292 
L 374.500831 83.144612 
L 373.945166 82.984861 
L 373.060764 82.017121 
L 372.627229 81.773499 
L 372.498827 81.592368 
L 372.177643 81.352936 
L 371.643571 81.115835 
L 371.223023 80.677395 
L 371.221746 80.648444 
L 370.826474 80.475459 
L 370.79547 80.418069 
L 370.451389 80.275183 
L 369.412279 79.628491 
L 368.983138 79.435031 
L 368.198159 78.702896 
L 367.542856 78.279198 
L 366.998377 78.14829 
L 365.976249 77.351992 
L 365.97138 77.326733 
L 365.683053 77.175729 
L 365.45114 77.075576 
L 365.273225 76.975834 
L 364.966688 76.826982 
L 364.911717 76.752896 
L 364.348121 76.507557 
L 364.038033 76.288844 
L 363.904055 76.072078 
L 363.354919 75.809734 
L 362.70963 75.573666 
L 362.468958 75.363143 
L 362.127885 75.177527 
L 361.904078 74.970386 
L 361.530024 74.833264 
L 361.449193 74.764991 
L 360.94623 74.538787 
L 360.898386 74.493797 
L 360.43469 74.314664 
L 360.129092 74.114701 
L 359.867987 73.916366 
L 359.743526 73.828733 
L 359.444855 73.632704 
L 358.897803 73.438239 
L 358.79285 73.352306 
L 354.01538 70.886516 
L 353.712232 70.731959 
L 353.436213 70.616682 
L 352.441867 70.142144 
L 352.253949 70.048336 
L 351.369679 69.676673 
L 351.27014 69.584637 
L 349.922003 69.021644 
L 349.335354 68.824959 
L 348.360833 68.401261 
L 347.421397 68.088255 
L 347.394663 68.019241 
L 347.166365 67.881796 
L 347.037606 67.813364 
L 346.075533 67.373177 
L 345.868414 67.306156 
L 345.294065 67.122794 
L 345.032597 67.039902 
L 344.758209 66.874959 
L 343.914521 66.499775 
L 343.50587 66.338437 
L 343.253478 66.242144 
L 341.851773 65.734915 
L 340.620489 65.08481 
L 340.06655 64.932548 
L 339.980616 64.887054 
L 339.485107 64.720966 
L 338.407304 64.332837 
L 338.277631 64.244141 
L 337.663996 64.038429 
L 337.459297 63.96538 
L 337.148954 63.819935 
L 336.44237 63.589013 
L 335.951642 63.331817 
L 329.123313 61.183636 
L 329.12093 61.170626 
L 328.619038 61.01504 
L 328.304321 60.899 
L 327.447664 60.655826 
L 327.355507 60.592234 
L 323.863671 59.535823 
L 323.715294 59.450832 
L 322.776396 59.269702 
L 322.685349 59.221627 
L 321.842365 59.042186 
L 321.59139 58.935152 
L 320.160403 58.616844 
L 319.053117 58.279528 
L 318.452267 58.12982 
L 318.027276 57.969619 
L 317.389883 57.787812 
L 316.735031 57.641086 
L 314.723647 57.10686 
L 314.552533 57.073856 
L 313.83266 56.876769 
L 313.781623 56.854969 
L 312.54838 56.594874 
L 311.438983 56.316203 
L 311.144965 56.178054 
L 308.931054 55.643526 
L 308.85925 55.622801 
L 307.982571 55.42679 
L 303.670887 54.351452 
L 302.982406 54.155615 
L 301.565664 53.816643 
L 300.466194 53.625042 
L 299.175732 53.274504 
L 297.649965 52.97535 
L 296.821772 52.716571 
L 295.920523 52.524275 
L 293.37959 51.974157 
L 292.333788 51.752239 
L 291.410148 51.514816 
L 284.75136 50.178295 
L 284.022567 50.004958 
L 283.831732 49.972081 
L 280.908509 49.411824 
L 280.829144 49.371722 
L 279.77341 49.227898 
L 279.268832 49.100764 
L 278.554816 48.950649 
L 278.124347 48.864162 
L 277.325377 48.715493 
L 275.643371 48.397741 
L 275.56075 48.366961 
L 274.504966 48.206003 
L 270.150079 47.402004 
L 269.389284 47.261971 
L 268.525613 47.115432 
L 266.181262 46.695387 
L 266.08513 46.673856 
L 265.68623 46.609378 
L 265.025492 46.480932 
L 263.032889 46.134664 
L 262.918648 46.106613 
L 261.776529 45.925067 
L 261.508636 45.800169 
L 260.13868 45.634628 
L 260.004709 45.614015 
L 257.142116 45.131179 
L 256.152843 44.956733 
L 255.616309 44.81674 
L 254.684153 44.664332 
L 254.142687 44.598364 
L 252.990374 44.46041 
L 249.880655 43.92909 
L 248.922744 43.775749 
L 244.640037 43.153225 
L 243.576219 42.96768 
L 243.084041 42.912291 
L 241.805111 42.734666 
L 241.655041 42.704172 
L 240.320507 42.491773 
L 239.440601 42.347191 
L 238.936148 42.251278 
L 237.668156 42.078391 
L 237.557347 42.066513 
L 230.236175 41.031903 
L 229.140156 40.856126 
L 228.964935 40.81661 
L 225.063484 40.303119 
L 224.948252 40.264489 
L 222.441965 39.984872 
L 219.451391 39.547268 
L 201.608021 37.254545 
L 201.608021 37.254545 
" clip-path="url(#pc13c45ede8)" style="fill: none; stroke: #31688e; stroke-width: 2; stroke-linecap: square"/>
   </g>
   <g id="line2d_98">
    <path d="M 302.949179 54.140991 
L 302.949179 289 
" clip-path="url(#pc13c45ede8)" style="fill: none; stroke-dasharray: 2.775,1.2; stroke-dashoffset: 0; stroke: #31688e; stroke-width: 0.75"/>
   </g>
   <g id="line2d_99">
    <defs>
     <path id="m15a2257603" d="M 0 4 
C 1.060812 4 2.078319 3.578535 2.828427 2.828427 
C 3.578535 2.078319 4 1.060812 4 0 
C 4 -1.060812 3.578535 -2.078319 2.828427 -2.828427 
C 2.078319 -3.578535 1.060812 -4 0 -4 
C -1.060812 -4 -2.078319 -3.578535 -2.828427 -2.828427 
C -3.578535 -2.078319 -4 -1.060812 -4 0 
C -4 1.060812 -3.578535 2.078319 -2.828427 2.828427 
C -2.078319 3.578535 -1.060812 4 0 4 
z
" style="stroke: #31688e"/>
    </defs>
    <g clip-path="url(#pc13c45ede8)">
     <use xlink:href="#m15a2257603" x="302.949179" y="54.140991" style="fill: #ffffff; stroke: #31688e"/>
     <use xlink:href="#m15a2257603" x="302.949179" y="20737" style="fill: #ffffff; stroke: #31688e"/>
    </g>
   </g>
   <g id="line2d_100">
    <path d="M 201.331226 289 
L 201.228331 210.972564 
L 201.030626 165.371737 
L 200.967953 161.08669 
L 200.800013 151.472128 
L 199.649485 116.535845 
L 199.254451 112.263017 
L 199.15482 111.124882 
L 198.820085 107.998479 
L 198.674615 106.784464 
L 198.429421 105.547549 
L 198.327128 104.756505 
L 198.181389 103.839959 
L 197.881383 102.314567 
L 197.786035 101.895726 
L 196.929549 98.358803 
L 196.781317 98.120542 
L 195.530178 94.646179 
L 195.113818 93.887177 
L 194.928312 93.639341 
L 194.463679 92.530692 
L 194.272049 92.389735 
L 194.16687 92.110244 
L 194.056645 91.971692 
L 193.931505 91.606027 
L 193.822295 91.335335 
L 193.647615 90.715178 
L 193.521948 90.454155 
L 193.346575 90.110417 
L 193.061458 89.94035 
L 192.657041 89.395691 
L 192.520157 89.107381 
L 192.171429 88.580833 
L 192.00972 88.301952 
L 191.556701 87.987092 
L 191.435352 87.831174 
L 190.531911 86.397703 
L 190.333071 86.215215 
L 189.766852 85.640274 
L 189.613398 85.428122 
L 188.174048 83.893269 
L 187.965047 83.728549 
L 187.804085 83.467292 
L 187.19039 82.637052 
L 187.093449 82.574344 
L 186.765443 82.325115 
L 186.613025 82.170631 
L 186.538679 82.047746 
L 186.26688 81.895005 
L 186.25958 81.864572 
L 186.025625 81.712972 
L 185.898652 81.502305 
L 185.549459 81.086359 
L 185.216021 80.764454 
L 184.337232 80.218262 
L 183.980346 79.991901 
L 183.740018 79.684048 
L 183.637773 79.545391 
L 183.313841 79.352588 
L 183.219923 79.270422 
L 182.884305 79.079774 
L 182.770216 78.783166 
L 182.294738 78.516621 
L 181.954754 78.279198 
L 181.881335 78.122193 
L 181.370113 77.785445 
L 180.199895 76.876499 
L 180.082887 76.777567 
L 180.035811 76.752896 
L 179.51593 76.605396 
L 178.50313 75.904805 
L 178.344059 75.809734 
L 178.112096 75.644246 
L 177.73582 75.316607 
L 177.200896 75.085247 
L 177.066444 74.970386 
L 175.128344 73.719633 
L 174.920778 73.502888 
L 171.957024 71.855194 
L 171.817542 71.73449 
L 171.542658 71.574476 
L 171.323291 71.415507 
L 171.071329 71.277254 
L 170.579541 71.04206 
L 170.460801 70.983615 
L 170.036481 70.751225 
L 165.617296 68.594542 
L 165.304722 68.436289 
L 165.192562 68.366284 
L 164.630071 68.122835 
L 164.392949 67.967608 
L 164.29968 67.86467 
L 163.728309 67.677072 
L 163.612348 67.592276 
L 163.210852 67.373177 
L 162.572848 67.139407 
L 162.426488 67.039902 
L 162.194907 66.924325 
L 161.458671 66.597094 
L 160.729936 66.258167 
L 160.376743 66.082498 
L 159.862738 65.892293 
L 159.570082 65.719233 
L 159.390055 65.594139 
L 158.894637 65.423177 
L 158.785026 65.330428 
L 158.460441 65.176627 
L 157.930093 64.932548 
L 157.379982 64.78123 
L 155.132274 63.819935 
L 154.592304 63.675353 
L 154.14932 63.474369 
L 154.017288 63.388738 
L 153.596186 63.232525 
L 153.455279 63.161849 
L 153.066492 63.00708 
L 152.557514 62.797603 
L 151.186354 62.220473 
L 151.076621 62.152669 
L 150.543237 61.963815 
L 149.69596 61.630176 
L 148.522026 61.222709 
L 148.385847 61.131636 
L 147.793978 60.937619 
L 147.696347 60.834771 
L 146.685405 60.554159 
L 145.373565 59.891121 
L 144.678516 59.731209 
L 144.000518 59.426604 
L 142.355398 58.828587 
L 141.860198 58.616844 
L 141.360437 58.430161 
L 140.734862 58.198802 
L 140.598929 58.10687 
L 139.917826 57.969619 
L 139.728983 57.85583 
L 138.5845 57.562445 
L 138.47919 57.506427 
L 136.713915 56.865867 
L 136.498152 56.778821 
L 136.169347 56.648832 
L 136.030133 56.573324 
L 134.765521 56.15687 
L 134.586599 56.082869 
L 133.937882 55.914565 
L 133.787867 55.841296 
L 132.878527 55.488518 
L 130.684542 54.767907 
L 130.467882 54.678065 
L 129.481002 54.440095 
L 128.836937 54.194657 
L 128.742825 54.136118 
L 127.953707 53.932332 
L 123.921368 52.579062 
L 122.962341 52.30635 
L 122.47481 52.099319 
L 121.622992 51.885147 
L 120.711379 51.532324 
L 119.668404 51.23639 
L 116.612766 50.145183 
L 116.514043 50.120379 
L 115.532862 49.865535 
L 115.274018 49.759454 
L 114.798534 49.572895 
L 114.308536 49.371722 
L 113.256413 49.100764 
L 113.129051 49.021641 
L 111.380996 48.47486 
L 110.020587 48.038514 
L 109.468767 47.887244 
L 108.95667 47.706951 
L 108.70148 47.602393 
L 105.575184 46.695387 
L 104.811645 46.502292 
L 104.585004 46.424061 
L 103.725986 46.127648 
L 102.67244 45.814015 
L 102.235464 45.66214 
L 101.169368 45.347611 
L 100.152368 45.02368 
L 99.428132 44.83669 
L 99.309854 44.77689 
L 98.862077 44.664332 
L 97.770001 44.421138 
L 97.179068 44.238699 
L 96.705147 44.102761 
L 96.647172 44.083403 
L 96.054401 43.92909 
L 95.890705 43.871474 
L 93.7551 43.371496 
L 93.530483 43.315182 
L 91.020849 42.746875 
L 90.445374 42.649378 
L 89.776261 42.509906 
L 84.833064 41.46249 
L 83.958704 41.312357 
L 60.801194 37.672344 
L 59.552242 37.524066 
L 59.27676 37.469923 
L 58.293926 37.254545 
L 58.293926 37.254545 
" clip-path="url(#pc13c45ede8)" style="fill: none; stroke: #35b779; stroke-width: 2; stroke-linecap: square"/>
   </g>
   <g id="line2d_101">
    <path d="M 128.754506 54.140991 
L 128.754506 289 
" clip-path="url(#pc13c45ede8)" style="fill: none; stroke-dasharray: 2.775,1.2; stroke-dashoffset: 0; stroke: #35b779; stroke-width: 0.75"/>
   </g>
   <g id="line2d_102">
    <defs>
     <path id="m353b77cd0d" d="M 0 4 
C 1.060812 4 2.078319 3.578535 2.828427 2.828427 
C 3.578535 2.078319 4 1.060812 4 0 
C 4 -1.060812 3.578535 -2.078319 2.828427 -2.828427 
C 2.078319 -3.578535 1.060812 -4 0 -4 
C -1.060812 -4 -2.078319 -3.578535 -2.828427 -2.828427 
C -3.578535 -2.078319 -4 -1.060812 -4 0 
C -4 1.060812 -3.578535 2.078319 -2.828427 2.828427 
C -2.078319 3.578535 -1.060812 4 0 4 
z
" style="stroke: #35b779"/>
    </defs>
    <g clip-path="url(#pc13c45ede8)">
     <use xlink:href="#m353b77cd0d" x="128.754506" y="54.140991" style="fill: #ffffff; stroke: #35b779"/>
     <use xlink:href="#m353b77cd0d" x="128.754506" y="20737" style="fill: #ffffff; stroke: #35b779"/>
    </g>
   </g>
   <g id="patch_2">
    <path d="M 41.012685 260.12 
L 421.2 260.12 
" style="fill: none; stroke: #000000; stroke-width: 0.8; stroke-linejoin: miter; stroke-linecap: square"/>
   </g>
   <g id="text_13">
    <!-- Cumulative density (unnormalized) -->
    <g transform="translate(125.42103 20.88) scale(0.12 -0.12)">
     <defs>
      <path id="DejaVuSans-43" d="M 4122 4306 
L 4122 3641 
Q 3803 3938 3442 4084 
Q 3081 4231 2675 4231 
Q 1875 4231 1450 3742 
Q 1025 3253 1025 2328 
Q 1025 1406 1450 917 
Q 1875 428 2675 428 
Q 3081 428 3442 575 
Q 3803 722 4122 1019 
L 4122 359 
Q 3791 134 3420 21 
Q 3050 -91 2638 -91 
Q 1578 -91 968 557 
Q 359 1206 359 2328 
Q 359 3453 968 4101 
Q 1578 4750 2638 4750 
Q 3056 4750 3426 4639 
Q 3797 4528 4122 4306 
z
" transform="scale(0.015625)"/>
      <path id="DejaVuSans-75" d="M 544 1381 
L 544 3500 
L 1119 3500 
L 1119 1403 
Q 1119 906 1312 657 
Q 1506 409 1894 409 
Q 2359 409 2629 706 
Q 2900 1003 2900 1516 
L 2900 3500 
L 3475 3500 
L 3475 0 
L 2900 0 
L 2900 538 
Q 2691 219 2414 64 
Q 2138 -91 1772 -91 
Q 1169 -91 856 284 
Q 544 659 544 1381 
z
M 1991 3584 
L 1991 3584 
z
" transform="scale(0.015625)"/>
      <path id="DejaVuSans-6d" d="M 3328 2828 
Q 3544 3216 3844 3400 
Q 4144 3584 4550 3584 
Q 5097 3584 5394 3201 
Q 5691 2819 5691 2113 
L 5691 0 
L 5113 0 
L 5113 2094 
Q 5113 2597 4934 2840 
Q 4756 3084 4391 3084 
Q 3944 3084 3684 2787 
Q 3425 2491 3425 1978 
L 3425 0 
L 2847 0 
L 2847 2094 
Q 2847 2600 2669 2842 
Q 2491 3084 2119 3084 
Q 1678 3084 1418 2786 
Q 1159 2488 1159 1978 
L 1159 0 
L 581 0 
L 581 3500 
L 1159 3500 
L 1159 2956 
Q 1356 3278 1631 3431 
Q 1906 3584 2284 3584 
Q 2666 3584 2933 3390 
Q 3200 3197 3328 2828 
z
" transform="scale(0.015625)"/>
      <path id="DejaVuSans-6c" d="M 603 4863 
L 1178 4863 
L 1178 0 
L 603 0 
L 603 4863 
z
" transform="scale(0.015625)"/>
      <path id="DejaVuSans-61" d="M 2194 1759 
Q 1497 1759 1228 1600 
Q 959 1441 959 1056 
Q 959 750 1161 570 
Q 1363 391 1709 391 
Q 2188 391 2477 730 
Q 2766 1069 2766 1631 
L 2766 1759 
L 2194 1759 
z
M 3341 1997 
L 3341 0 
L 2766 0 
L 2766 531 
Q 2569 213 2275 61 
Q 1981 -91 1556 -91 
Q 1019 -91 701 211 
Q 384 513 384 1019 
Q 384 1609 779 1909 
Q 1175 2209 1959 2209 
L 2766 2209 
L 2766 2266 
Q 2766 2663 2505 2880 
Q 2244 3097 1772 3097 
Q 1472 3097 1187 3025 
Q 903 2953 641 2809 
L 641 3341 
Q 956 3463 1253 3523 
Q 1550 3584 1831 3584 
Q 2591 3584 2966 3190 
Q 3341 2797 3341 1997 
z
" transform="scale(0.015625)"/>
      <path id="DejaVuSans-74" d="M 1172 4494 
L 1172 3500 
L 2356 3500 
L 2356 3053 
L 1172 3053 
L 1172 1153 
Q 1172 725 1289 603 
Q 1406 481 1766 481 
L 2356 481 
L 2356 0 
L 1766 0 
Q 1100 0 847 248 
Q 594 497 594 1153 
L 594 3053 
L 172 3053 
L 172 3500 
L 594 3500 
L 594 4494 
L 1172 4494 
z
" transform="scale(0.015625)"/>
      <path id="DejaVuSans-69" d="M 603 3500 
L 1178 3500 
L 1178 0 
L 603 0 
L 603 3500 
z
M 603 4863 
L 1178 4863 
L 1178 4134 
L 603 4134 
L 603 4863 
z
" transform="scale(0.015625)"/>
      <path id="DejaVuSans-76" d="M 191 3500 
L 800 3500 
L 1894 563 
L 2988 3500 
L 3597 3500 
L 2284 0 
L 1503 0 
L 191 3500 
z
" transform="scale(0.015625)"/>
      <path id="DejaVuSans-65" d="M 3597 1894 
L 3597 1613 
L 953 1613 
Q 991 1019 1311 708 
Q 1631 397 2203 397 
Q 2534 397 2845 478 
Q 3156 559 3463 722 
L 3463 178 
Q 3153 47 2828 -22 
Q 2503 -91 2169 -91 
Q 1331 -91 842 396 
Q 353 884 353 1716 
Q 353 2575 817 3079 
Q 1281 3584 2069 3584 
Q 2775 3584 3186 3129 
Q 3597 2675 3597 1894 
z
M 3022 2063 
Q 3016 2534 2758 2815 
Q 2500 3097 2075 3097 
Q 1594 3097 1305 2825 
Q 1016 2553 972 2059 
L 3022 2063 
z
" transform="scale(0.015625)"/>
      <path id="DejaVuSans-20" transform="scale(0.015625)"/>
      <path id="DejaVuSans-64" d="M 2906 2969 
L 2906 4863 
L 3481 4863 
L 3481 0 
L 2906 0 
L 2906 525 
Q 2725 213 2448 61 
Q 2172 -91 1784 -91 
Q 1150 -91 751 415 
Q 353 922 353 1747 
Q 353 2572 751 3078 
Q 1150 3584 1784 3584 
Q 2172 3584 2448 3432 
Q 2725 3281 2906 2969 
z
M 947 1747 
Q 947 1113 1208 752 
Q 1469 391 1925 391 
Q 2381 391 2643 752 
Q 2906 1113 2906 1747 
Q 2906 2381 2643 2742 
Q 2381 3103 1925 3103 
Q 1469 3103 1208 2742 
Q 947 2381 947 1747 
z
" transform="scale(0.015625)"/>
      <path id="DejaVuSans-6e" d="M 3513 2113 
L 3513 0 
L 2938 0 
L 2938 2094 
Q 2938 2591 2744 2837 
Q 2550 3084 2163 3084 
Q 1697 3084 1428 2787 
Q 1159 2491 1159 1978 
L 1159 0 
L 581 0 
L 581 3500 
L 1159 3500 
L 1159 2956 
Q 1366 3272 1645 3428 
Q 1925 3584 2291 3584 
Q 2894 3584 3203 3211 
Q 3513 2838 3513 2113 
z
" transform="scale(0.015625)"/>
      <path id="DejaVuSans-73" d="M 2834 3397 
L 2834 2853 
Q 2591 2978 2328 3040 
Q 2066 3103 1784 3103 
Q 1356 3103 1142 2972 
Q 928 2841 928 2578 
Q 928 2378 1081 2264 
Q 1234 2150 1697 2047 
L 1894 2003 
Q 2506 1872 2764 1633 
Q 3022 1394 3022 966 
Q 3022 478 2636 193 
Q 2250 -91 1575 -91 
Q 1294 -91 989 -36 
Q 684 19 347 128 
L 347 722 
Q 666 556 975 473 
Q 1284 391 1588 391 
Q 1994 391 2212 530 
Q 2431 669 2431 922 
Q 2431 1156 2273 1281 
Q 2116 1406 1581 1522 
L 1381 1569 
Q 847 1681 609 1914 
Q 372 2147 372 2553 
Q 372 3047 722 3315 
Q 1072 3584 1716 3584 
Q 2034 3584 2315 3537 
Q 2597 3491 2834 3397 
z
" transform="scale(0.015625)"/>
      <path id="DejaVuSans-79" d="M 2059 -325 
Q 1816 -950 1584 -1140 
Q 1353 -1331 966 -1331 
L 506 -1331 
L 506 -850 
L 844 -850 
Q 1081 -850 1212 -737 
Q 1344 -625 1503 -206 
L 1606 56 
L 191 3500 
L 800 3500 
L 1894 763 
L 2988 3500 
L 3597 3500 
L 2059 -325 
z
" transform="scale(0.015625)"/>
      <path id="DejaVuSans-28" d="M 1984 4856 
Q 1566 4138 1362 3434 
Q 1159 2731 1159 2009 
Q 1159 1288 1364 580 
Q 1569 -128 1984 -844 
L 1484 -844 
Q 1016 -109 783 600 
Q 550 1309 550 2009 
Q 550 2706 781 3412 
Q 1013 4119 1484 4856 
L 1984 4856 
z
" transform="scale(0.015625)"/>
      <path id="DejaVuSans-6f" d="M 1959 3097 
Q 1497 3097 1228 2736 
Q 959 2375 959 1747 
Q 959 1119 1226 758 
Q 1494 397 1959 397 
Q 2419 397 2687 759 
Q 2956 1122 2956 1747 
Q 2956 2369 2687 2733 
Q 2419 3097 1959 3097 
z
M 1959 3584 
Q 2709 3584 3137 3096 
Q 3566 2609 3566 1747 
Q 3566 888 3137 398 
Q 2709 -91 1959 -91 
Q 1206 -91 779 398 
Q 353 888 353 1747 
Q 353 2609 779 3096 
Q 1206 3584 1959 3584 
z
" transform="scale(0.015625)"/>
      <path id="DejaVuSans-72" d="M 2631 2963 
Q 2534 3019 2420 3045 
Q 2306 3072 2169 3072 
Q 1681 3072 1420 2755 
Q 1159 2438 1159 1844 
L 1159 0 
L 581 0 
L 581 3500 
L 1159 3500 
L 1159 2956 
Q 1341 3275 1631 3429 
Q 1922 3584 2338 3584 
Q 2397 3584 2469 3576 
Q 2541 3569 2628 3553 
L 2631 2963 
z
" transform="scale(0.015625)"/>
      <path id="DejaVuSans-7a" d="M 353 3500 
L 3084 3500 
L 3084 2975 
L 922 459 
L 3084 459 
L 3084 0 
L 275 0 
L 275 525 
L 2438 3041 
L 353 3041 
L 353 3500 
z
" transform="scale(0.015625)"/>
      <path id="DejaVuSans-29" d="M 513 4856 
L 1013 4856 
Q 1481 4119 1714 3412 
Q 1947 2706 1947 2009 
Q 1947 1309 1714 600 
Q 1481 -109 1013 -844 
L 513 -844 
Q 928 -128 1133 580 
Q 1338 1288 1338 2009 
Q 1338 2731 1133 3434 
Q 928 4138 513 4856 
z
" transform="scale(0.015625)"/>
     </defs>
     <use xlink:href="#DejaVuSans-43"/>
     <use xlink:href="#DejaVuSans-75" x="69.824219"/>
     <use xlink:href="#DejaVuSans-6d" x="133.203125"/>
     <use xlink:href="#DejaVuSans-75" x="230.615234"/>
     <use xlink:href="#DejaVuSans-6c" x="293.994141"/>
     <use xlink:href="#DejaVuSans-61" x="321.777344"/>
     <use xlink:href="#DejaVuSans-74" x="383.056641"/>
     <use xlink:href="#DejaVuSans-69" x="422.265625"/>
     <use xlink:href="#DejaVuSans-76" x="450.048828"/>
     <use xlink:href="#DejaVuSans-65" x="509.228516"/>
     <use xlink:href="#DejaVuSans-20" x="570.751953"/>
     <use xlink:href="#DejaVuSans-64" x="602.539062"/>
     <use xlink:href="#DejaVuSans-65" x="666.015625"/>
     <use xlink:href="#DejaVuSans-6e" x="727.539062"/>
     <use xlink:href="#DejaVuSans-73" x="790.917969"/>
     <use xlink:href="#DejaVuSans-69" x="843.017578"/>
     <use xlink:href="#DejaVuSans-74" x="870.800781"/>
     <use xlink:href="#DejaVuSans-79" x="910.009766"/>
     <use xlink:href="#DejaVuSans-20" x="969.189453"/>
     <use xlink:href="#DejaVuSans-28" x="1000.976562"/>
     <use xlink:href="#DejaVuSans-75" x="1039.990234"/>
     <use xlink:href="#DejaVuSans-6e" x="1103.369141"/>
     <use xlink:href="#DejaVuSans-6e" x="1166.748047"/>
     <use xlink:href="#DejaVuSans-6f" x="1230.126953"/>
     <use xlink:href="#DejaVuSans-72" x="1291.308594"/>
     <use xlink:href="#DejaVuSans-6d" x="1330.671875"/>
     <use xlink:href="#DejaVuSans-61" x="1428.083984"/>
     <use xlink:href="#DejaVuSans-6c" x="1489.363281"/>
     <use xlink:href="#DejaVuSans-69" x="1517.146484"/>
     <use xlink:href="#DejaVuSans-7a" x="1544.929688"/>
     <use xlink:href="#DejaVuSans-65" x="1597.419922"/>
     <use xlink:href="#DejaVuSans-64" x="1658.943359"/>
     <use xlink:href="#DejaVuSans-29" x="1722.419922"/>
    </g>
   </g>
   <g id="legend_1">
    <g id="patch_3">
     <path d="M 48.012685 250.12 
L 187.650185 250.12 
Q 189.650185 250.12 189.650185 248.12 
L 189.650185 219.2075 
Q 189.650185 217.2075 187.650185 217.2075 
L 48.012685 217.2075 
Q 46.012685 217.2075 46.012685 219.2075 
L 46.012685 248.12 
Q 46.012685 250.12 48.012685 250.12 
z
" style="fill: #e6e6e6; opacity: 0.8; stroke: #ffffff; stroke-linejoin: miter"/>
    </g>
    <g id="line2d_103">
     <path d="M 50.012685 225.305937 
L 60.012685 225.305937 
L 70.012685 225.305937 
" style="fill: none; stroke: #31688e; stroke-width: 2; stroke-linecap: square"/>
    </g>
    <g id="text_14">
     <!-- centroids_5000_2.dat -->
     <g transform="translate(78.012685 228.805937) scale(0.1 -0.1)">
      <defs>
       <path id="DejaVuSans-63" d="M 3122 3366 
L 3122 2828 
Q 2878 2963 2633 3030 
Q 2388 3097 2138 3097 
Q 1578 3097 1268 2742 
Q 959 2388 959 1747 
Q 959 1106 1268 751 
Q 1578 397 2138 397 
Q 2388 397 2633 464 
Q 2878 531 3122 666 
L 3122 134 
Q 2881 22 2623 -34 
Q 2366 -91 2075 -91 
Q 1284 -91 818 406 
Q 353 903 353 1747 
Q 353 2603 823 3093 
Q 1294 3584 2113 3584 
Q 2378 3584 2631 3529 
Q 2884 3475 3122 3366 
z
" transform="scale(0.015625)"/>
       <path id="DejaVuSans-5f" d="M 3263 -1063 
L 3263 -1509 
L -63 -1509 
L -63 -1063 
L 3263 -1063 
z
" transform="scale(0.015625)"/>
      </defs>
      <use xlink:href="#DejaVuSans-63"/>
      <use xlink:href="#DejaVuSans-65" x="54.980469"/>
      <use xlink:href="#DejaVuSans-6e" x="116.503906"/>
      <use xlink:href="#DejaVuSans-74" x="179.882812"/>
      <use xlink:href="#DejaVuSans-72" x="219.091797"/>
      <use xlink:href="#DejaVuSans-6f" x="257.955078"/>
      <use xlink:href="#DejaVuSans-69" x="319.136719"/>
      <use xlink:href="#DejaVuSans-64" x="346.919922"/>
      <use xlink:href="#DejaVuSans-73" x="410.396484"/>
      <use xlink:href="#DejaVuSans-5f" x="462.496094"/>
      <use xlink:href="#DejaVuSans-35" x="512.496094"/>
      <use xlink:href="#DejaVuSans-30" x="576.119141"/>
      <use xlink:href="#DejaVuSans-30" x="639.742188"/>
      <use xlink:href="#DejaVuSans-30" x="703.365234"/>
      <use xlink:href="#DejaVuSans-5f" x="766.988281"/>
      <use xlink:href="#DejaVuSans-32" x="816.988281"/>
      <use xlink:href="#DejaVuSans-2e" x="880.611328"/>
      <use xlink:href="#DejaVuSans-64" x="912.398438"/>
      <use xlink:href="#DejaVuSans-61" x="975.875"/>
      <use xlink:href="#DejaVuSans-74" x="1037.154297"/>
     </g>
    </g>
    <g id="line2d_104">
     <path d="M 50.012685 240.262188 
L 60.012685 240.262188 
L 70.012685 240.262188 
" style="fill: none; stroke: #35b779; stroke-width: 2; stroke-linecap: square"/>
    </g>
    <g id="text_15">
     <!-- archive_1000000.dat -->
     <g transform="translate(78.012685 243.762188) scale(0.1 -0.1)">
      <defs>
       <path id="DejaVuSans-68" d="M 3513 2113 
L 3513 0 
L 2938 0 
L 2938 2094 
Q 2938 2591 2744 2837 
Q 2550 3084 2163 3084 
Q 1697 3084 1428 2787 
Q 1159 2491 1159 1978 
L 1159 0 
L 581 0 
L 581 4863 
L 1159 4863 
L 1159 2956 
Q 1366 3272 1645 3428 
Q 1925 3584 2291 3584 
Q 2894 3584 3203 3211 
Q 3513 2838 3513 2113 
z
" transform="scale(0.015625)"/>
      </defs>
      <use xlink:href="#DejaVuSans-61"/>
      <use xlink:href="#DejaVuSans-72" x="61.279297"/>
      <use xlink:href="#DejaVuSans-63" x="100.142578"/>
      <use xlink:href="#DejaVuSans-68" x="155.123047"/>
      <use xlink:href="#DejaVuSans-69" x="218.501953"/>
      <use xlink:href="#DejaVuSans-76" x="246.285156"/>
      <use xlink:href="#DejaVuSans-65" x="305.464844"/>
      <use xlink:href="#DejaVuSans-5f" x="366.988281"/>
      <use xlink:href="#DejaVuSans-31" x="416.988281"/>
      <use xlink:href="#DejaVuSans-30" x="480.611328"/>
      <use xlink:href="#DejaVuSans-30" x="544.234375"/>
      <use xlink:href="#DejaVuSans-30" x="607.857422"/>
      <use xlink:href="#DejaVuSans-30" x="671.480469"/>
      <use xlink:href="#DejaVuSans-30" x="735.103516"/>
      <use xlink:href="#DejaVuSans-30" x="798.726562"/>
      <use xlink:href="#DejaVuSans-2e" x="862.349609"/>
      <use xlink:href="#DejaVuSans-64" x="894.136719"/>
      <use xlink:href="#DejaVuSans-61" x="957.613281"/>
      <use xlink:href="#DejaVuSans-74" x="1018.892578"/>
     </g>
    </g>
   </g>
  </g>
 </g>
 <defs>
  <clipPath id="pc13c45ede8">
   <rect x="41.012685" y="26.88" width="380.187315" height="228.24"/>
  </clipPath>
 </defs>
</svg>
